{
    "accessors" : [
        {
            "bufferView" : 0,
            "componentType" : 5123,
            "count" : 2256,
            "max" : [
                462
            ],
            "min" : [
                0
            ],
            "type" : "SCALAR"
        },
        {
            "bufferView" : 1,
            "componentType" : 5126,
            "count" : 463,
            "max" : [
                0.45840001106262207,
                2.40939998626709,
                -2.8826000690460205
            ],
            "min" : [
                -0.48649999499320984,
                2.3166000843048096,
                -3.3243000507354736
            ],
            "type" : "VEC3"
        },
        {
            "bufferView" : 2,
            "componentType" : 5126,
            "count" : 463,
            "max" : [
                0.999114990234375,
                0.9982299208641052,
                0.9863582253456116
            ],
            "min" : [
                -0.9996337890625,
                -0.9982299208641052,
                -0.9935606122016907
            ],
            "type" : "VEC3"
        },
        {
            "bufferView" : 3,
            "componentType" : 5126,
            "count" : 463,
            "max" : [
                0.9987233877182007,
                0.8591169118881226,
                0.9887539148330688,
                1.0
            ],
            "min" : [
                -0.9989290237426758,
                -0.8623660802841187,
                -0.9652904272079468,
                -1.0
            ],
            "type" : "VEC4"
        },
        {
            "bufferView" : 4,
            "componentType" : 5126,
            "count" : 463,
            "max" : [
                1.0246000289916992,
                0.6527999937534332
            ],
            "min" : [
                0.003100000089034438,
                0.3273000121116638
            ],
            "type" : "VEC2"
        },
        {
            "bufferView" : 5,
            "componentType" : 5123,
            "count" : 10668,
            "max" : [
                2390
            ],
            "min" : [
                0
            ],
            "type" : "SCALAR"
        },
        {
            "bufferView" : 6,
            "componentType" : 5126,
            "count" : 2391,
            "max" : [
                3.152899980545044,
                2.6847000122070312,
                -2.036400079727173
            ],
            "min" : [
                -3.3238000869750977,
                -0.9039999842643738,
                -4.328999996185303
            ],
            "type" : "VEC3"
        },
        {
            "bufferView" : 7,
            "componentType" : 5126,
            "count" : 2391,
            "max" : [
                0.99920654296875,
                0.9985656142234802,
                0.99993896484375
            ],
            "min" : [
                -0.9996337890625,
                -0.999542236328125,
                -0.99981689453125
            ],
            "type" : "VEC3"
        },
        {
            "bufferView" : 8,
            "componentType" : 5126,
            "count" : 2391,
            "max" : [
                1.0,
                0.9982165098190308,
                0.9957458972930908,
                1.0
            ],
            "min" : [
                -0.9971871376037598,
                -0.9989952445030212,
                -0.9992644786834717,
                -1.0
            ],
            "type" : "VEC4"
        },
        {
            "bufferView" : 9,
            "componentType" : 5126,
            "count" : 2391,
            "max" : [
                1.0879000425338745,
                0.8050000071525574
            ],
            "min" : [
                0.0,
                0.27389997243881226
            ],
            "type" : "VEC2"
        },
        {
            "bufferView" : 10,
            "componentType" : 5123,
            "count" : 8640,
            "max" : [
                1733
            ],
            "min" : [
                0
            ],
            "type" : "SCALAR"
        },
        {
            "bufferView" : 11,
            "componentType" : 5126,
            "count" : 1734,
            "max" : [
                2.6126999855041504,
                2.7978999614715576,
                -2.0708999633789062
            ],
            "min" : [
                -2.6784000396728516,
                2.014899969100952,
                -4.282199859619141
            ],
            "type" : "VEC3"
        },
        {
            "bufferView" : 12,
            "componentType" : 5126,
            "count" : 1734,
            "max" : [
                0.9862971901893616,
                0.99969482421875,
                0.9765617847442627
            ],
            "min" : [
                -0.9919736385345459,
                -0.9998779296875,
                -0.999969482421875
            ],
            "type" : "VEC3"
        },
        {
            "bufferView" : 13,
            "componentType" : 5126,
            "count" : 1734,
            "max" : [
                0.9998680949211121,
                0.9104872941970825,
                0.9921349883079529,
                1.0
            ],
            "min" : [
                -0.9893229007720947,
                -0.840740442276001,
                -0.9993609189987183,
                -1.0
            ],
            "type" : "VEC4"
        },
        {
            "bufferView" : 14,
            "componentType" : 5126,
            "count" : 1734,
            "max" : [
                1.0388000011444092,
                0.7042999863624573
            ],
            "min" : [
                0.0,
                0.25550001859664917
            ],
            "type" : "VEC2"
        },
        {
            "bufferView" : 15,
            "componentType" : 5123,
            "count" : 606,
            "max" : [
                605
            ],
            "min" : [
                0
            ],
            "type" : "SCALAR"
        },
        {
            "bufferView" : 16,
            "componentType" : 5126,
            "count" : 606,
            "max" : [
                1.9630000591278076,
                -1.291200041770935,
                -0.2842999994754791
            ],
            "min" : [
                -1.9630000591278076,
                -2.1201999187469482,
                -2.0116000175476074
            ],
            "type" : "VEC3"
        },
        {
            "bufferView" : 17,
            "componentType" : 5126,
            "count" : 606,
            "max" : [
                0.8824473023414612,
                -0.39435774087905884,
                0.8047181963920593
            ],
            "min" : [
                -0.8824473023414612,
                -0.9975655674934387,
                -0.5657539963722229
            ],
            "type" : "VEC3"
        },
        {
            "bufferView" : 18,
            "componentType" : 5126,
            "count" : 606,
            "max" : [
                0.1491442769765854,
                0.9483420848846436,
                0.6480379700660706,
                1.0
            ],
            "min" : [
                -0.9999250173568726,
                -0.9402104020118713,
                -0.6482018232345581,
                -1.0
            ],
            "type" : "VEC4"
        },
        {
            "bufferView" : 19,
            "componentType" : 5126,
            "count" : 606,
            "max" : [
                0.7232999801635742,
                0.4677000045776367
            ],
            "min" : [
                0.2766999900341034,
                0.2558000087738037
            ],
            "type" : "VEC2"
        }
    ],
    "asset" : {
        "generator" : "Khronos Blender glTF 2.0 exporter",
        "version" : "2.0"
    },
    "bufferViews" : [
        {
            "buffer" : 0,
            "byteLength" : 4512,
            "byteOffset" : 0,
            "target" : 34963
        },
        {
            "buffer" : 0,
            "byteLength" : 5556,
            "byteOffset" : 4512,
            "target" : 34962
        },
        {
            "buffer" : 0,
            "byteLength" : 5556,
            "byteOffset" : 10068,
            "target" : 34962
        },
        {
            "buffer" : 0,
            "byteLength" : 7408,
            "byteOffset" : 15624,
            "target" : 34962
        },
        {
            "buffer" : 0,
            "byteLength" : 3704,
            "byteOffset" : 23032,
            "target" : 34962
        },
        {
            "buffer" : 0,
            "byteLength" : 21336,
            "byteOffset" : 26736,
            "target" : 34963
        },
        {
            "buffer" : 0,
            "byteLength" : 28692,
            "byteOffset" : 48072,
            "target" : 34962
        },
        {
            "buffer" : 0,
            "byteLength" : 28692,
            "byteOffset" : 76764,
            "target" : 34962
        },
        {
            "buffer" : 0,
            "byteLength" : 38256,
            "byteOffset" : 105456,
            "target" : 34962
        },
        {
            "buffer" : 0,
            "byteLength" : 19128,
            "byteOffset" : 143712,
            "target" : 34962
        },
        {
            "buffer" : 0,
            "byteLength" : 17280,
            "byteOffset" : 162840,
            "target" : 34963
        },
        {
            "buffer" : 0,
            "byteLength" : 20808,
            "byteOffset" : 180120,
            "target" : 34962
        },
        {
            "buffer" : 0,
            "byteLength" : 20808,
            "byteOffset" : 200928,
            "target" : 34962
        },
        {
            "buffer" : 0,
            "byteLength" : 27744,
            "byteOffset" : 221736,
            "target" : 34962
        },
        {
            "buffer" : 0,
            "byteLength" : 13872,
            "byteOffset" : 249480,
            "target" : 34962
        },
        {
            "buffer" : 0,
            "byteLength" : 1212,
            "byteOffset" : 263352,
            "target" : 34963
        },
        {
            "buffer" : 0,
            "byteLength" : 7272,
            "byteOffset" : 264564,
            "target" : 34962
        },
        {
            "buffer" : 0,
            "byteLength" : 7272,
            "byteOffset" : 271836,
            "target" : 34962
        },
        {
            "buffer" : 0,
            "byteLength" : 9696,
            "byteOffset" : 279108,
            "target" : 34962
        },
        {
            "buffer" : 0,
            "byteLength" : 4848,
            "byteOffset" : 288804,
            "target" : 34962
        }
    ],
    "buffers" : [
        {
            "byteLength" : 293652,
            "uri" : "glass6.bin"
        }
    ],
    "materials" : [
        {
            "alphaMode" : "BLEND",
            "name" : "glasseyes.004",
            "pbrMetallicRoughness" : {
                "baseColorFactor" : [
                    0.9725000262260437,
                    0.9725000262260437,
                    0.9725000262260437,
                    0.8500000238418579
                ],
                "metallicFactor" : 0.0
            }
        },
        {
            "alphaMode" : "BLEND",
            "name" : "lambert1.004",
            "pbrMetallicRoughness" : {
                "baseColorFactor" : [
                    0.7843000292778015,
                    0.7843000292778015,
                    0.7843000292778015,
                    1.0
                ],
                "metallicFactor" : 0.0
            }
        },
        {
            "alphaMode" : "BLEND",
            "name" : "lambert1.006",
            "pbrMetallicRoughness" : {
                "baseColorFactor" : [
                    0.7843000292778015,
                    0.7843000292778015,
                    0.7843000292778015,
                    1.0
                ],
                "metallicFactor" : 0.0
            }
        },
        {
            "alphaMode" : "BLEND",
            "name" : "temple.006",
            "pbrMetallicRoughness" : {
                "baseColorFactor" : [
                    0.5490000247955322,
                    0.513700008392334,
                    0.27059999108314514,
                    1.0
                ],
                "metallicFactor" : 0.0
            }
        }
    ],
    "meshes" : [
        {
            "name" : "mesh0_2",
            "primitives" : [
                {
                    "attributes" : {
                        "NORMAL" : 2,
                        "POSITION" : 1,
                        "TANGENT" : 3,
                        "TEXCOORD_0" : 4
                    },
                    "indices" : 0,
                    "material" : 2
                }
            ]
        },
        {
            "name" : "temple.001",
            "primitives" : [
                {
                    "attributes" : {
                        "NORMAL" : 7,
                        "POSITION" : 6,
                        "TANGENT" : 8,
                        "TEXCOORD_0" : 9
                    },
                    "indices" : 5,
                    "material" : 3
                }
            ]
        },
        {
            "name" : "glasseyes.001",
            "primitives" : [
                {
                    "attributes" : {
                        "NORMAL" : 12,
                        "POSITION" : 11,
                        "TANGENT" : 13,
                        "TEXCOORD_0" : 14
                    },
                    "indices" : 10,
                    "material" : 0
                }
            ]
        },
        {
            "name" : "facemesh.004",
            "primitives" : [
                {
                    "attributes" : {
                        "NORMAL" : 17,
                        "POSITION" : 16,
                        "TANGENT" : 18,
                        "TEXCOORD_0" : 19
                    },
                    "indices" : 15,
                    "material" : 1
                }
            ]
        }
    ],
    "nodes" : [
        {
            "name" : "Camera",
            "rotation" : [
                0.483536034822464,
                0.33687159419059753,
                -0.20870360732078552,
                0.7804827094078064
            ],
            "translation" : [
                7.481131553649902,
                5.34366512298584,
                6.5076398849487305
            ]
        },
        {
            "mesh" : 3,
            "name" : "facemesh.000",
            "rotation" : [
                0.7071068286895752,
                0.0,
                -0.0,
                0.7071067094802856
            ]
        },
        {
            "mesh" : 2,
            "name" : "glasseyes.000",
            "rotation" : [
                0.7071068286895752,
                0.0,
                -0.0,
                0.7071067094802856
            ]
        },
        {
            "name" : "Lamp",
            "rotation" : [
                0.16907575726509094,
                0.7558802962303162,
                -0.27217137813568115,
                0.570947527885437
            ],
            "scale" : [
                1.0,
                1.0,
                0.9999999403953552
            ],
            "translation" : [
                4.076245307922363,
                5.903861999511719,
                -1.0054539442062378
            ]
        },
        {
            "mesh" : 0,
            "name" : "mesh0_2",
            "rotation" : [
                0.7071068286895752,
                0.0,
                -0.0,
                0.7071067094802856
            ]
        },
        {
            "mesh" : 1,
            "name" : "temple.000",
            "rotation" : [
                0.7071068286895752,
                0.0,
                -0.0,
                0.7071067094802856
            ]
        }
    ],
    "scene" : 0,
    "scenes" : [
        {
            "name" : "Scene",
            "nodes" : [
                5,
                2,
                4,
                1,
                3,
                0
            ]
        }
    ]
}
