{
    "accessors" : [
        {
            "bufferView" : 0,
            "componentType" : 5123,
            "count" : 8640,
            "max" : [
                1731
            ],
            "min" : [
                0
            ],
            "type" : "SCALAR"
        },
        {
            "bufferView" : 1,
            "componentType" : 5126,
            "count" : 1732,
            "max" : [
                2.539958953857422,
                4.5279436111450195,
                0.46243816614151
            ],
            "min" : [
                -2.750141143798828,
                3.773743152618408,
                -1.7812618017196655
            ],
            "type" : "VEC3"
        },
        {
            "bufferView" : 2,
            "componentType" : 5126,
            "count" : 1732,
            "max" : [
                0.9853510856628418,
                0.99993896484375,
                0.9934385418891907
            ],
            "min" : [
                -0.9922788143157959,
                -0.99993896484375,
                -0.9930417537689209
            ],
            "type" : "VEC3"
        },
        {
            "bufferView" : 3,
            "componentType" : 5126,
            "count" : 1732,
            "max" : [
                0.9998696446418762,
                0.8676937818527222,
                0.9947035908699036,
                1.0
            ],
            "min" : [
                -0.9864977598190308,
                -0.7799790501594543,
                -0.9995484352111816,
                -1.0
            ],
            "type" : "VEC4"
        },
        {
            "bufferView" : 4,
            "componentType" : 5126,
            "count" : 1732,
            "max" : [
                1.0388000011444092,
                0.7042999863624573
            ],
            "min" : [
                0.0,
                0.25550001859664917
            ],
            "type" : "VEC2"
        },
        {
            "bufferView" : 5,
            "componentType" : 5123,
            "count" : 10668,
            "max" : [
                2390
            ],
            "min" : [
                0
            ],
            "type" : "SCALAR"
        },
        {
            "bufferView" : 6,
            "componentType" : 5126,
            "count" : 2391,
            "max" : [
                3.0853257179260254,
                4.520942687988281,
                0.5531368255615234
            ],
            "min" : [
                -3.390174388885498,
                0.9522430896759033,
                -1.7702631950378418
            ],
            "type" : "VEC3"
        },
        {
            "bufferView" : 7,
            "componentType" : 5126,
            "count" : 2391,
            "max" : [
                0.999237060546875,
                0.999725341796875,
                0.999298095703125
            ],
            "min" : [
                -0.99957275390625,
                -0.999053955078125,
                -0.999298095703125
            ],
            "type" : "VEC3"
        },
        {
            "bufferView" : 8,
            "componentType" : 5126,
            "count" : 2391,
            "max" : [
                1.0,
                0.9953022599220276,
                0.9977257251739502,
                1.0
            ],
            "min" : [
                -0.9986228346824646,
                -0.9930612444877625,
                -0.9948685765266418,
                -1.0
            ],
            "type" : "VEC4"
        },
        {
            "bufferView" : 9,
            "componentType" : 5126,
            "count" : 2391,
            "max" : [
                1.0879000425338745,
                0.8050000071525574
            ],
            "min" : [
                0.0,
                0.27389997243881226
            ],
            "type" : "VEC2"
        },
        {
            "bufferView" : 10,
            "componentType" : 5123,
            "count" : 2256,
            "max" : [
                462
            ],
            "min" : [
                0
            ],
            "type" : "SCALAR"
        },
        {
            "bufferView" : 11,
            "componentType" : 5126,
            "count" : 463,
            "max" : [
                0.37735897302627563,
                4.176342964172363,
                -0.35236185789108276
            ],
            "min" : [
                -0.5673409700393677,
                4.079442977905273,
                -0.7965617179870605
            ],
            "type" : "VEC3"
        },
        {
            "bufferView" : 12,
            "componentType" : 5126,
            "count" : 463,
            "max" : [
                0.9987792372703552,
                0.99993896484375,
                0.964568018913269
            ],
            "min" : [
                -0.99932861328125,
                -0.999969482421875,
                -0.9899594187736511
            ],
            "type" : "VEC3"
        },
        {
            "bufferView" : 13,
            "componentType" : 5126,
            "count" : 463,
            "max" : [
                0.9946218132972717,
                0.8598238229751587,
                0.9861589074134827,
                1.0
            ],
            "min" : [
                -0.9999794960021973,
                -0.8590658903121948,
                -0.982092022895813,
                -1.0
            ],
            "type" : "VEC4"
        },
        {
            "bufferView" : 14,
            "componentType" : 5126,
            "count" : 463,
            "max" : [
                1.0246000289916992,
                0.6527999937534332
            ],
            "min" : [
                0.003100000089034438,
                0.3273000121116638
            ],
            "type" : "VEC2"
        }
    ],
    "asset" : {
        "generator" : "Khronos Blender glTF 2.0 exporter",
        "version" : "2.0"
    },
    "bufferViews" : [
        {
            "buffer" : 0,
            "byteLength" : 17280,
            "byteOffset" : 0,
            "target" : 34963
        },
        {
            "buffer" : 0,
            "byteLength" : 20784,
            "byteOffset" : 17280,
            "target" : 34962
        },
        {
            "buffer" : 0,
            "byteLength" : 20784,
            "byteOffset" : 38064,
            "target" : 34962
        },
        {
            "buffer" : 0,
            "byteLength" : 27712,
            "byteOffset" : 58848,
            "target" : 34962
        },
        {
            "buffer" : 0,
            "byteLength" : 13856,
            "byteOffset" : 86560,
            "target" : 34962
        },
        {
            "buffer" : 0,
            "byteLength" : 21336,
            "byteOffset" : 100416,
            "target" : 34963
        },
        {
            "buffer" : 0,
            "byteLength" : 28692,
            "byteOffset" : 121752,
            "target" : 34962
        },
        {
            "buffer" : 0,
            "byteLength" : 28692,
            "byteOffset" : 150444,
            "target" : 34962
        },
        {
            "buffer" : 0,
            "byteLength" : 38256,
            "byteOffset" : 179136,
            "target" : 34962
        },
        {
            "buffer" : 0,
            "byteLength" : 19128,
            "byteOffset" : 217392,
            "target" : 34962
        },
        {
            "buffer" : 0,
            "byteLength" : 4512,
            "byteOffset" : 236520,
            "target" : 34963
        },
        {
            "buffer" : 0,
            "byteLength" : 5556,
            "byteOffset" : 241032,
            "target" : 34962
        },
        {
            "buffer" : 0,
            "byteLength" : 5556,
            "byteOffset" : 246588,
            "target" : 34962
        },
        {
            "buffer" : 0,
            "byteLength" : 7408,
            "byteOffset" : 252144,
            "target" : 34962
        },
        {
            "buffer" : 0,
            "byteLength" : 3704,
            "byteOffset" : 259552,
            "target" : 34962
        }
    ],
    "buffers" : [
        {
            "byteLength" : 263256,
            "uri" : "glass7.bin"
        }
    ],
    "materials" : [
        {
            "alphaMode" : "BLEND",
            "name" : "glasseyes",
            "pbrMetallicRoughness" : {
                "baseColorFactor" : [
                    0.2587999999523163,
                    0.25099998712539673,
                    0.5019999742507935,
                    0.8500000238418579
                ],
                "metallicFactor" : 0.0
            }
        },
        {
            "alphaMode" : "BLEND",
            "name" : "lambert1",
            "pbrMetallicRoughness" : {
                "baseColorFactor" : [
                    0.7843000292778015,
                    0.7843000292778015,
                    0.7843000292778015,
                    1.0
                ],
                "metallicFactor" : 0.0
            }
        },
        {
            "alphaMode" : "BLEND",
            "name" : "temple",
            "pbrMetallicRoughness" : {
                "baseColorFactor" : [
                    0.5490000247955322,
                    0.513700008392334,
                    0.27059999108314514,
                    1.0
                ],
                "metallicFactor" : 0.0
            }
        }
    ],
    "meshes" : [
        {
            "name" : "mesh0_1",
            "primitives" : [
                {
                    "attributes" : {
                        "NORMAL" : 2,
                        "POSITION" : 1,
                        "TANGENT" : 3,
                        "TEXCOORD_0" : 4
                    },
                    "indices" : 0,
                    "material" : 0
                }
            ]
        },
        {
            "name" : "mesh0",
            "primitives" : [
                {
                    "attributes" : {
                        "NORMAL" : 7,
                        "POSITION" : 6,
                        "TANGENT" : 8,
                        "TEXCOORD_0" : 9
                    },
                    "indices" : 5,
                    "material" : 2
                }
            ]
        },
        {
            "name" : "mesh0_2",
            "primitives" : [
                {
                    "attributes" : {
                        "NORMAL" : 12,
                        "POSITION" : 11,
                        "TANGENT" : 13,
                        "TEXCOORD_0" : 14
                    },
                    "indices" : 10,
                    "material" : 1
                }
            ]
        }
    ],
    "nodes" : [
        {
            "name" : "Camera",
            "rotation" : [
                0.483536034822464,
                0.33687159419059753,
                -0.20870360732078552,
                0.7804827094078064
            ],
            "translation" : [
                7.481131553649902,
                5.34366512298584,
                6.5076398849487305
            ]
        },
        {
            "name" : "Lamp",
            "rotation" : [
                0.16907575726509094,
                0.7558802962303162,
                -0.27217137813568115,
                0.570947527885437
            ],
            "scale" : [
                1.0,
                1.0,
                0.9999999403953552
            ],
            "translation" : [
                4.076245307922363,
                5.903861999511719,
                -1.0054539442062378
            ]
        },
        {
            "mesh" : 1,
            "name" : "mesh0",
            "rotation" : [
                0.7071068286895752,
                0.0,
                -0.0,
                0.7071067094802856
            ]
        },
        {
            "mesh" : 0,
            "name" : "mesh0_1",
            "rotation" : [
                0.7071068286895752,
                0.0,
                -0.0,
                0.7071067094802856
            ]
        },
        {
            "mesh" : 2,
            "name" : "mesh0_2",
            "rotation" : [
                0.7071068286895752,
                0.0,
                -0.0,
                0.7071067094802856
            ]
        }
    ],
    "scene" : 0,
    "scenes" : [
        {
            "name" : "Scene",
            "nodes" : [
                2,
                4,
                3,
                1,
                0
            ]
        }
    ]
}
