{
    "accessors" : [
        {
            "bufferView" : 0,
            "componentType" : 5123,
            "count" : 8640,
            "max" : [
                1731
            ],
            "min" : [
                0
            ],
            "type" : "SCALAR"
        },
        {
            "bufferView" : 1,
            "componentType" : 5126,
            "count" : 1732,
            "max" : [
                2.6126999855041504,
                2.5764000415802,
                -2.150700092315674
            ],
            "min" : [
                -2.6784000396728516,
                1.7934000492095947,
                -4.361999988555908
            ],
            "type" : "VEC3"
        },
        {
            "bufferView" : 2,
            "componentType" : 5126,
            "count" : 1732,
            "max" : [
                0.9863582253456116,
                0.99969482421875,
                0.9766228199005127
            ],
            "min" : [
                -0.9920346736907959,
                -0.9998779296875,
                -0.999969482421875
            ],
            "type" : "VEC3"
        },
        {
            "bufferView" : 3,
            "componentType" : 5126,
            "count" : 1732,
            "max" : [
                0.9998670816421509,
                0.9133855104446411,
                0.9922230243682861,
                1.0
            ],
            "min" : [
                -0.9890943765640259,
                -0.8347886204719543,
                -0.999362051486969,
                -1.0
            ],
            "type" : "VEC4"
        },
        {
            "bufferView" : 4,
            "componentType" : 5126,
            "count" : 1732,
            "max" : [
                1.0388000011444092,
                0.7042999863624573
            ],
            "min" : [
                0.0,
                0.25550001859664917
            ],
            "type" : "VEC2"
        },
        {
            "bufferView" : 5,
            "componentType" : 5123,
            "count" : 606,
            "max" : [
                197
            ],
            "min" : [
                0
            ],
            "type" : "SCALAR"
        },
        {
            "bufferView" : 6,
            "componentType" : 5126,
            "count" : 198,
            "max" : [
                1.9630000591278076,
                -1.291200041770935,
                -0.2842999994754791
            ],
            "min" : [
                -1.9630000591278076,
                -2.1201999187469482,
                -2.0116000175476074
            ],
            "type" : "VEC3"
        },
        {
            "bufferView" : 7,
            "componentType" : 5126,
            "count" : 198,
            "max" : [
                0.8824427127838135,
                -0.39432966709136963,
                0.8041017055511475
            ],
            "min" : [
                -0.8824427127838135,
                -0.9974364638328552,
                -0.5504928827285767
            ],
            "type" : "VEC3"
        },
        {
            "bufferView" : 8,
            "componentType" : 5126,
            "count" : 198,
            "max" : [
                0.21034343540668488,
                0.9261023998260498,
                0.6935212016105652,
                1.0
            ],
            "min" : [
                -1.0,
                -0.926092267036438,
                -0.6932971477508545,
                -1.0
            ],
            "type" : "VEC4"
        },
        {
            "bufferView" : 9,
            "componentType" : 5126,
            "count" : 198,
            "max" : [
                0.7232999801635742,
                0.4677000045776367
            ],
            "min" : [
                0.2766999900341034,
                0.2558000087738037
            ],
            "type" : "VEC2"
        },
        {
            "bufferView" : 10,
            "componentType" : 5123,
            "count" : 10668,
            "max" : [
                2390
            ],
            "min" : [
                0
            ],
            "type" : "SCALAR"
        },
        {
            "bufferView" : 11,
            "componentType" : 5126,
            "count" : 2391,
            "max" : [
                3.152899980545044,
                2.463099956512451,
                -2.1161000728607178
            ],
            "min" : [
                -3.3238000869750977,
                -1.125499963760376,
                -4.40880012512207
            ],
            "type" : "VEC3"
        },
        {
            "bufferView" : 12,
            "componentType" : 5126,
            "count" : 2391,
            "max" : [
                0.9991455078125,
                0.9985350966453552,
                0.99993896484375
            ],
            "min" : [
                -0.9996337890625,
                -0.99957275390625,
                -0.999847412109375
            ],
            "type" : "VEC3"
        },
        {
            "bufferView" : 13,
            "componentType" : 5126,
            "count" : 2391,
            "max" : [
                1.0,
                0.9981806874275208,
                0.9955211877822876,
                1.0
            ],
            "min" : [
                -0.997004508972168,
                -0.9989961981773376,
                -0.9992635846138,
                -1.0
            ],
            "type" : "VEC4"
        },
        {
            "bufferView" : 14,
            "componentType" : 5126,
            "count" : 2391,
            "max" : [
                1.0879000425338745,
                0.8050000071525574
            ],
            "min" : [
                0.0,
                0.27389997243881226
            ],
            "type" : "VEC2"
        },
        {
            "bufferView" : 15,
            "componentType" : 5123,
            "count" : 2256,
            "max" : [
                462
            ],
            "min" : [
                0
            ],
            "type" : "SCALAR"
        },
        {
            "bufferView" : 16,
            "componentType" : 5126,
            "count" : 463,
            "max" : [
                0.45840001106262207,
                2.1879000663757324,
                -2.9623000621795654
            ],
            "min" : [
                -0.48649999499320984,
                2.0950000286102295,
                -3.404099941253662
            ],
            "type" : "VEC3"
        },
        {
            "bufferView" : 17,
            "componentType" : 5126,
            "count" : 463,
            "max" : [
                0.999176025390625,
                0.9982604384422302,
                0.9862056374549866
            ],
            "min" : [
                -0.9996337890625,
                -0.9982909560203552,
                -0.9932859539985657
            ],
            "type" : "VEC3"
        },
        {
            "bufferView" : 18,
            "componentType" : 5126,
            "count" : 463,
            "max" : [
                0.9987379908561707,
                0.8812459111213684,
                0.9893919229507446,
                1.0
            ],
            "min" : [
                -0.9989668130874634,
                -0.858083963394165,
                -0.965293824672699,
                -1.0
            ],
            "type" : "VEC4"
        },
        {
            "bufferView" : 19,
            "componentType" : 5126,
            "count" : 463,
            "max" : [
                1.0246000289916992,
                0.6527999937534332
            ],
            "min" : [
                0.003100000089034438,
                0.3273000121116638
            ],
            "type" : "VEC2"
        }
    ],
    "asset" : {
        "generator" : "Khronos Blender glTF 2.0 exporter",
        "version" : "2.0"
    },
    "bufferViews" : [
        {
            "buffer" : 0,
            "byteLength" : 17280,
            "byteOffset" : 0,
            "target" : 34963
        },
        {
            "buffer" : 0,
            "byteLength" : 20784,
            "byteOffset" : 17280,
            "target" : 34962
        },
        {
            "buffer" : 0,
            "byteLength" : 20784,
            "byteOffset" : 38064,
            "target" : 34962
        },
        {
            "buffer" : 0,
            "byteLength" : 27712,
            "byteOffset" : 58848,
            "target" : 34962
        },
        {
            "buffer" : 0,
            "byteLength" : 13856,
            "byteOffset" : 86560,
            "target" : 34962
        },
        {
            "buffer" : 0,
            "byteLength" : 1212,
            "byteOffset" : 100416,
            "target" : 34963
        },
        {
            "buffer" : 0,
            "byteLength" : 2376,
            "byteOffset" : 101628,
            "target" : 34962
        },
        {
            "buffer" : 0,
            "byteLength" : 2376,
            "byteOffset" : 104004,
            "target" : 34962
        },
        {
            "buffer" : 0,
            "byteLength" : 3168,
            "byteOffset" : 106380,
            "target" : 34962
        },
        {
            "buffer" : 0,
            "byteLength" : 1584,
            "byteOffset" : 109548,
            "target" : 34962
        },
        {
            "buffer" : 0,
            "byteLength" : 21336,
            "byteOffset" : 111132,
            "target" : 34963
        },
        {
            "buffer" : 0,
            "byteLength" : 28692,
            "byteOffset" : 132468,
            "target" : 34962
        },
        {
            "buffer" : 0,
            "byteLength" : 28692,
            "byteOffset" : 161160,
            "target" : 34962
        },
        {
            "buffer" : 0,
            "byteLength" : 38256,
            "byteOffset" : 189852,
            "target" : 34962
        },
        {
            "buffer" : 0,
            "byteLength" : 19128,
            "byteOffset" : 228108,
            "target" : 34962
        },
        {
            "buffer" : 0,
            "byteLength" : 4512,
            "byteOffset" : 247236,
            "target" : 34963
        },
        {
            "buffer" : 0,
            "byteLength" : 5556,
            "byteOffset" : 251748,
            "target" : 34962
        },
        {
            "buffer" : 0,
            "byteLength" : 5556,
            "byteOffset" : 257304,
            "target" : 34962
        },
        {
            "buffer" : 0,
            "byteLength" : 7408,
            "byteOffset" : 262860,
            "target" : 34962
        },
        {
            "buffer" : 0,
            "byteLength" : 3704,
            "byteOffset" : 270268,
            "target" : 34962
        }
    ],
    "buffers" : [
        {
            "byteLength" : 273972,
            "uri" : "glass2.bin"
        }
    ],
    "materials" : [
        {
            "alphaMode" : "BLEND",
            "name" : "glasseyes",
            "pbrMetallicRoughness" : {
                "baseColorFactor" : [
                    0.31369999051094055,
                    0.694100022315979,
                    0.3765000104904175,
                    0.8500000238418579
                ],
                "metallicFactor" : 0.0
            }
        },
        {
            "alphaMode" : "BLEND",
            "name" : "lambert1",
            "pbrMetallicRoughness" : {
                "baseColorFactor" : [
                    0.7843000292778015,
                    0.7843000292778015,
                    0.7843000292778015,
                    1.0
                ],
                "metallicFactor" : 0.0
            }
        },
        {
            "alphaMode" : "BLEND",
            "name" : "temple",
            "pbrMetallicRoughness" : {
                "baseColorFactor" : [
                    0.5490000247955322,
                    0.513700008392334,
                    0.27059999108314514,
                    1.0
                ],
                "metallicFactor" : 0.0
            }
        }
    ],
    "meshes" : [
        {
            "name" : "mesh0_1",
            "primitives" : [
                {
                    "attributes" : {
                        "NORMAL" : 2,
                        "POSITION" : 1,
                        "TANGENT" : 3,
                        "TEXCOORD_0" : 4
                    },
                    "indices" : 0,
                    "material" : 0
                }
            ]
        },
        {
            "name" : "facemesh",
            "primitives" : [
                {
                    "attributes" : {
                        "NORMAL" : 7,
                        "POSITION" : 6,
                        "TANGENT" : 8,
                        "TEXCOORD_0" : 9
                    },
                    "indices" : 5,
                    "material" : 1
                }
            ]
        },
        {
            "name" : "mesh0",
            "primitives" : [
                {
                    "attributes" : {
                        "NORMAL" : 12,
                        "POSITION" : 11,
                        "TANGENT" : 13,
                        "TEXCOORD_0" : 14
                    },
                    "indices" : 10,
                    "material" : 2
                }
            ]
        },
        {
            "name" : "mesh0_2",
            "primitives" : [
                {
                    "attributes" : {
                        "NORMAL" : 17,
                        "POSITION" : 16,
                        "TANGENT" : 18,
                        "TEXCOORD_0" : 19
                    },
                    "indices" : 15,
                    "material" : 1
                }
            ]
        }
    ],
    "nodes" : [
        {
            "name" : "Camera",
            "rotation" : [
                0.483536034822464,
                0.33687159419059753,
                -0.20870360732078552,
                0.7804827094078064
            ],
            "translation" : [
                7.481131553649902,
                5.34366512298584,
                6.5076398849487305
            ]
        },
        {
            "mesh" : 1,
            "name" : "facemesh",
            "rotation" : [
                0.7071068286895752,
                0.0,
                -0.0,
                0.7071067094802856
            ]
        },
        {
            "name" : "Lamp",
            "rotation" : [
                0.16907575726509094,
                0.7558802962303162,
                -0.27217137813568115,
                0.570947527885437
            ],
            "scale" : [
                1.0,
                1.0,
                0.9999999403953552
            ],
            "translation" : [
                4.076245307922363,
                5.903861999511719,
                -1.0054539442062378
            ]
        },
        {
            "mesh" : 2,
            "name" : "mesh0",
            "rotation" : [
                0.7071068286895752,
                0.0,
                -0.0,
                0.7071067094802856
            ]
        },
        {
            "mesh" : 0,
            "name" : "mesh0_1",
            "rotation" : [
                0.7071068286895752,
                0.0,
                -0.0,
                0.7071067094802856
            ]
        },
        {
            "mesh" : 3,
            "name" : "mesh0_2",
            "rotation" : [
                0.7071068286895752,
                0.0,
                -0.0,
                0.7071067094802856
            ]
        }
    ],
    "scene" : 0,
    "scenes" : [
        {
            "name" : "Scene",
            "nodes" : [
                5,
                3,
                1,
                4,
                2,
                0
            ]
        }
    ]
}
