{
    "accessors" : [
        {
            "bufferView" : 0,
            "componentType" : 5123,
            "count" : 123804,
            "max" : [
                22077
            ],
            "min" : [
                0
            ],
            "type" : "SCALAR"
        },
        {
            "bufferView" : 1,
            "componentType" : 5126,
            "count" : 22078,
            "max" : [
                3.322000026702881,
                2.6988000869750977,
                -3.18969988822937
            ],
            "min" : [
                -3.512200117111206,
                -1.3459999561309814,
                -4.468500137329102
            ],
            "type" : "VEC3"
        },
        {
            "bufferView" : 2,
            "componentType" : 5126,
            "count" : 22078,
            "max" : [
                1.0,
                0.999969482421875,
                1.0
            ],
            "min" : [
                -1.0,
                -0.9998779296875,
                -1.0
            ],
            "type" : "VEC3"
        },
        {
            "bufferView" : 3,
            "componentType" : 5126,
            "count" : 22078,
            "max" : [
                1.0,
                1.0,
                1.0,
                1.0
            ],
            "min" : [
                -1.0,
                -0.9999959468841553,
                -0.9999999403953552,
                -1.0
            ],
            "type" : "VEC4"
        },
        {
            "bufferView" : 4,
            "componentType" : 5126,
            "count" : 22078,
            "max" : [
                0.9815000295639038,
                0.9899000003933907
            ],
            "min" : [
                0.008200000040233135,
                0.011799991130828857
            ],
            "type" : "VEC2"
        },
        {
            "bufferView" : 5,
            "componentType" : 5123,
            "count" : 27264,
            "max" : [
                4741
            ],
            "min" : [
                0
            ],
            "type" : "SCALAR"
        },
        {
            "bufferView" : 6,
            "componentType" : 5126,
            "count" : 4742,
            "max" : [
                2.412100076675415,
                2.680500030517578,
                -3.2390999794006348
            ],
            "min" : [
                -2.412100076675415,
                2.533600091934204,
                -4.28410005569458
            ],
            "type" : "VEC3"
        },
        {
            "bufferView" : 7,
            "componentType" : 5126,
            "count" : 4742,
            "max" : [
                0.999786376953125,
                0.999969482421875,
                0.9932859539985657
            ],
            "min" : [
                -0.999786376953125,
                -0.999603271484375,
                -0.9939268231391907
            ],
            "type" : "VEC3"
        },
        {
            "bufferView" : 8,
            "componentType" : 5126,
            "count" : 4742,
            "max" : [
                0.9999963045120239,
                0.9999802708625793,
                0.9999778270721436,
                1.0
            ],
            "min" : [
                -0.9999957084655762,
                -0.9999762773513794,
                -0.9999916553497314,
                -1.0
            ],
            "type" : "VEC4"
        },
        {
            "bufferView" : 9,
            "componentType" : 5126,
            "count" : 4742,
            "max" : [
                0.6669999957084656,
                0.9899000003933907
            ],
            "min" : [
                0.2930000126361847,
                0.071399986743927
            ],
            "type" : "VEC2"
        },
        {
            "bufferView" : 10,
            "componentType" : 5123,
            "count" : 606,
            "max" : [
                605
            ],
            "min" : [
                0
            ],
            "type" : "SCALAR"
        },
        {
            "bufferView" : 11,
            "componentType" : 5126,
            "count" : 606,
            "max" : [
                1.9630000591278076,
                -1.291200041770935,
                -0.2842999994754791
            ],
            "min" : [
                -1.9630000591278076,
                -2.1201999187469482,
                -2.0116000175476074
            ],
            "type" : "VEC3"
        },
        {
            "bufferView" : 12,
            "componentType" : 5126,
            "count" : 606,
            "max" : [
                0.8824473023414612,
                -0.39435774087905884,
                0.8047181963920593
            ],
            "min" : [
                -0.8824473023414612,
                -0.9975655674934387,
                -0.5657539963722229
            ],
            "type" : "VEC3"
        },
        {
            "bufferView" : 13,
            "componentType" : 5126,
            "count" : 606,
            "max" : [
                0.1491442769765854,
                0.9483420848846436,
                0.6480379700660706,
                1.0
            ],
            "min" : [
                -0.9999250173568726,
                -0.9402104020118713,
                -0.6482018232345581,
                -1.0
            ],
            "type" : "VEC4"
        },
        {
            "bufferView" : 14,
            "componentType" : 5126,
            "count" : 606,
            "max" : [
                0.7232999801635742,
                0.4677000045776367
            ],
            "min" : [
                0.2766999900341034,
                0.2558000087738037
            ],
            "type" : "VEC2"
        }
    ],
    "asset" : {
        "generator" : "Khronos Blender glTF 2.0 exporter",
        "version" : "2.0"
    },
    "bufferViews" : [
        {
            "buffer" : 0,
            "byteLength" : 247608,
            "byteOffset" : 0,
            "target" : 34963
        },
        {
            "buffer" : 0,
            "byteLength" : 264936,
            "byteOffset" : 247608,
            "target" : 34962
        },
        {
            "buffer" : 0,
            "byteLength" : 264936,
            "byteOffset" : 512544,
            "target" : 34962
        },
        {
            "buffer" : 0,
            "byteLength" : 353248,
            "byteOffset" : 777480,
            "target" : 34962
        },
        {
            "buffer" : 0,
            "byteLength" : 176624,
            "byteOffset" : 1130728,
            "target" : 34962
        },
        {
            "buffer" : 0,
            "byteLength" : 54528,
            "byteOffset" : 1307352,
            "target" : 34963
        },
        {
            "buffer" : 0,
            "byteLength" : 56904,
            "byteOffset" : 1361880,
            "target" : 34962
        },
        {
            "buffer" : 0,
            "byteLength" : 56904,
            "byteOffset" : 1418784,
            "target" : 34962
        },
        {
            "buffer" : 0,
            "byteLength" : 75872,
            "byteOffset" : 1475688,
            "target" : 34962
        },
        {
            "buffer" : 0,
            "byteLength" : 37936,
            "byteOffset" : 1551560,
            "target" : 34962
        },
        {
            "buffer" : 0,
            "byteLength" : 1212,
            "byteOffset" : 1589496,
            "target" : 34963
        },
        {
            "buffer" : 0,
            "byteLength" : 7272,
            "byteOffset" : 1590708,
            "target" : 34962
        },
        {
            "buffer" : 0,
            "byteLength" : 7272,
            "byteOffset" : 1597980,
            "target" : 34962
        },
        {
            "buffer" : 0,
            "byteLength" : 9696,
            "byteOffset" : 1605252,
            "target" : 34962
        },
        {
            "buffer" : 0,
            "byteLength" : 4848,
            "byteOffset" : 1614948,
            "target" : 34962
        }
    ],
    "buffers" : [
        {
            "byteLength" : 1619796,
            "uri" : "glass6.bin"
        }
    ],
    "images" : [
        {
            "name" : "10308_Metal_Frame_Reading_Glasses_V1_Diffuse.jpg",
            "uri" : "10308_Metal_Frame_Reading_Glasses_V1_Diffuse.jpg.jpg"
        },
        {
            "name" : "10308_Metal_Frame_Reading_Glasses_V1_Diffuse",
            "uri" : "10308_Metal_Frame_Reading_Glasses_V1_Diffuse.jpg"
        }
    ],
    "materials" : [
        {
            "alphaMode" : "BLEND",
            "name" : "10308_Metal_Fframe_Reading_Glasses",
            "occlusionTexture" : {
                "index" : 0
            },
            "pbrMetallicRoughness" : {
                "baseColorFactor" : [
                    0.6626999974250793,
                    0.6626999974250793,
                    0.6626999974250793,
                    1.0
                ],
                "baseColorTexture" : {
                    "index" : 0
                },
                "metallicFactor" : 0.0
            }
        },
        {
            "alphaMode" : "BLEND",
            "name" : "10308_Metal_Fframe_Reading_Glasses_Rim",
            "occlusionTexture" : {
                "index" : 2
            },
            "pbrMetallicRoughness" : {
                "baseColorFactor" : [
                    0.6626999974250793,
                    0.6626999974250793,
                    0.6626999974250793,
                    0.5
                ],
                "baseColorTexture" : {
                    "index" : 0
                },
                "metallicFactor" : 0.0
            }
        },
        {
            "alphaMode" : "BLEND",
            "name" : "lambert1",
            "pbrMetallicRoughness" : {
                "baseColorFactor" : [
                    0.7843000292778015,
                    0.7843000292778015,
                    0.7843000292778015,
                    1.0
                ],
                "metallicFactor" : 0.0
            }
        }
    ],
    "meshes" : [
        {
            "name" : "10308_Metal_Frame_Reading_Glasses_Spectacle_Frame",
            "primitives" : [
                {
                    "attributes" : {
                        "NORMAL" : 2,
                        "POSITION" : 1,
                        "TANGENT" : 3,
                        "TEXCOORD_0" : 4
                    },
                    "indices" : 0,
                    "material" : 0
                }
            ]
        },
        {
            "name" : "Object001",
            "primitives" : [
                {
                    "attributes" : {
                        "NORMAL" : 7,
                        "POSITION" : 6,
                        "TANGENT" : 8,
                        "TEXCOORD_0" : 9
                    },
                    "indices" : 5,
                    "material" : 1
                }
            ]
        },
        {
            "name" : "facemesh",
            "primitives" : [
                {
                    "attributes" : {
                        "NORMAL" : 12,
                        "POSITION" : 11,
                        "TANGENT" : 13,
                        "TEXCOORD_0" : 14
                    },
                    "indices" : 10,
                    "material" : 2
                }
            ]
        }
    ],
    "nodes" : [
        {
            "mesh" : 0,
            "name" : "10308_Metal_Frame_Reading_Glasses_Spectacle_Frame",
            "rotation" : [
                0.7071068286895752,
                0.0,
                -0.0,
                0.7071067094802856
            ]
        },
        {
            "name" : "Camera",
            "rotation" : [
                0.483536034822464,
                0.33687159419059753,
                -0.20870360732078552,
                0.7804827094078064
            ],
            "translation" : [
                7.481131553649902,
                5.34366512298584,
                6.5076398849487305
            ]
        },
        {
            "mesh" : 2,
            "name" : "facemesh",
            "rotation" : [
                0.7071068286895752,
                0.0,
                -0.0,
                0.7071067094802856
            ]
        },
        {
            "name" : "Lamp",
            "rotation" : [
                0.16907575726509094,
                0.7558802962303162,
                -0.27217137813568115,
                0.570947527885437
            ],
            "scale" : [
                1.0,
                1.0,
                0.9999999403953552
            ],
            "translation" : [
                4.076245307922363,
                5.903861999511719,
                -1.0054539442062378
            ]
        },
        {
            "mesh" : 1,
            "name" : "Object001",
            "rotation" : [
                0.7071068286895752,
                0.0,
                -0.0,
                0.7071067094802856
            ]
        }
    ],
    "samplers" : [
        {}
    ],
    "scene" : 0,
    "scenes" : [
        {
            "name" : "Scene",
            "nodes" : [
                4,
                0,
                2,
                3,
                1
            ]
        }
    ],
    "textures" : [
        {
            "sampler" : 0,
            "source" : 0
        },
        {
            "sampler" : 0,
            "source" : 0
        },
        {
            "sampler" : 0,
            "source" : 1
        },
        {
            "sampler" : 0,
            "source" : 0
        }
    ]
}
