{
    "accessors" : [
        {
            "bufferView" : 0,
            "componentType" : 5123,
            "count" : 10668,
            "max" : [
                2460
            ],
            "min" : [
                0
            ],
            "type" : "SCALAR"
        },
        {
            "bufferView" : 1,
            "componentType" : 5126,
            "count" : 2461,
            "max" : [
                42.6495361328125,
                21.830699920654297,
                21.990699768066406
            ],
            "min" : [
                -53.82701873779297,
                -13.184200286865234,
                -33.35813903808594
            ],
            "type" : "VEC3"
        },
        {
            "bufferView" : 2,
            "componentType" : 5126,
            "count" : 2461,
            "max" : [
                0.999114990234375,
                0.999267578125,
                0.999755859375
            ],
            "min" : [
                -0.9989928603172302,
                -0.999603271484375,
                -0.99945068359375
            ],
            "type" : "VEC3"
        },
        {
            "bufferView" : 3,
            "componentType" : 5126,
            "count" : 2461,
            "max" : [
                1.0,
                0.9955947399139404,
                0.9986082911491394,
                1.0
            ],
            "min" : [
                -0.9990682005882263,
                -0.9998588562011719,
                -0.9932450652122498,
                -1.0
            ],
            "type" : "VEC4"
        },
        {
            "bufferView" : 4,
            "componentType" : 5126,
            "count" : 2461,
            "max" : [
                1.0879000425338745,
                0.8050000071525574
            ],
            "min" : [
                0.0,
                0.27389997243881226
            ],
            "type" : "VEC2"
        },
        {
            "bufferView" : 5,
            "componentType" : 5123,
            "count" : 2256,
            "max" : [
                508
            ],
            "min" : [
                0
            ],
            "type" : "SCALAR"
        },
        {
            "bufferView" : 6,
            "componentType" : 5126,
            "count" : 509,
            "max" : [
                6.242099761962891,
                7.948800086975098,
                19.787099838256836
            ],
            "min" : [
                -11.967499732971191,
                -0.6229000091552734,
                17.508100509643555
            ],
            "type" : "VEC3"
        },
        {
            "bufferView" : 7,
            "componentType" : 5126,
            "count" : 509,
            "max" : [
                0.9988097548484802,
                0.9903256297111511,
                0.99993896484375
            ],
            "min" : [
                -0.9985961318016052,
                -0.9607226848602295,
                -0.99993896484375
            ],
            "type" : "VEC3"
        },
        {
            "bufferView" : 8,
            "componentType" : 5126,
            "count" : 509,
            "max" : [
                0.9944333434104919,
                0.9828516840934753,
                0.8920321464538574,
                1.0
            ],
            "min" : [
                -0.9995609521865845,
                -0.9847487807273865,
                -0.8268323540687561,
                -1.0
            ],
            "type" : "VEC4"
        },
        {
            "bufferView" : 9,
            "componentType" : 5126,
            "count" : 509,
            "max" : [
                1.0246000289916992,
                0.6527999937534332
            ],
            "min" : [
                0.003100000089034438,
                0.3273000121116638
            ],
            "type" : "VEC2"
        },
        {
            "bufferView" : 10,
            "componentType" : 5123,
            "count" : 8640,
            "max" : [
                1762
            ],
            "min" : [
                0
            ],
            "type" : "SCALAR"
        },
        {
            "bufferView" : 11,
            "componentType" : 5126,
            "count" : 1763,
            "max" : [
                36.67729949951172,
                21.226699829101562,
                24.004199981689453
            ],
            "min" : [
                -42.95280075073242,
                -12.586799621582031,
                11.250200271606445
            ],
            "type" : "VEC3"
        },
        {
            "bufferView" : 12,
            "componentType" : 5126,
            "count" : 1763,
            "max" : [
                0.982695996761322,
                0.9927060604095459,
                0.99981689453125
            ],
            "min" : [
                -0.9928281307220459,
                -0.9934385418891907,
                -0.999847412109375
            ],
            "type" : "VEC3"
        },
        {
            "bufferView" : 13,
            "componentType" : 5126,
            "count" : 1763,
            "max" : [
                0.9999639391899109,
                0.9995264410972595,
                0.9856099486351013,
                1.0
            ],
            "min" : [
                -0.9851625561714172,
                -0.9934790134429932,
                -0.9327935576438904,
                -1.0
            ],
            "type" : "VEC4"
        },
        {
            "bufferView" : 14,
            "componentType" : 5126,
            "count" : 1763,
            "max" : [
                1.0388000011444092,
                0.7042999863624573
            ],
            "min" : [
                0.0,
                0.25550001859664917
            ],
            "type" : "VEC2"
        }
    ],
    "asset" : {
        "generator" : "Khronos Blender glTF 2.0 exporter",
        "version" : "2.0"
    },
    "bufferViews" : [
        {
            "buffer" : 0,
            "byteLength" : 21336,
            "byteOffset" : 0,
            "target" : 34963
        },
        {
            "buffer" : 0,
            "byteLength" : 29532,
            "byteOffset" : 21336,
            "target" : 34962
        },
        {
            "buffer" : 0,
            "byteLength" : 29532,
            "byteOffset" : 50868,
            "target" : 34962
        },
        {
            "buffer" : 0,
            "byteLength" : 39376,
            "byteOffset" : 80400,
            "target" : 34962
        },
        {
            "buffer" : 0,
            "byteLength" : 19688,
            "byteOffset" : 119776,
            "target" : 34962
        },
        {
            "buffer" : 0,
            "byteLength" : 4512,
            "byteOffset" : 139464,
            "target" : 34963
        },
        {
            "buffer" : 0,
            "byteLength" : 6108,
            "byteOffset" : 143976,
            "target" : 34962
        },
        {
            "buffer" : 0,
            "byteLength" : 6108,
            "byteOffset" : 150084,
            "target" : 34962
        },
        {
            "buffer" : 0,
            "byteLength" : 8144,
            "byteOffset" : 156192,
            "target" : 34962
        },
        {
            "buffer" : 0,
            "byteLength" : 4072,
            "byteOffset" : 164336,
            "target" : 34962
        },
        {
            "buffer" : 0,
            "byteLength" : 17280,
            "byteOffset" : 168408,
            "target" : 34963
        },
        {
            "buffer" : 0,
            "byteLength" : 21156,
            "byteOffset" : 185688,
            "target" : 34962
        },
        {
            "buffer" : 0,
            "byteLength" : 21156,
            "byteOffset" : 206844,
            "target" : 34962
        },
        {
            "buffer" : 0,
            "byteLength" : 28208,
            "byteOffset" : 228000,
            "target" : 34962
        },
        {
            "buffer" : 0,
            "byteLength" : 14104,
            "byteOffset" : 256208,
            "target" : 34962
        }
    ],
    "buffers" : [
        {
            "byteLength" : 270312,
            "uri" : "glass7.bin"
        }
    ],
    "materials" : [
        {
            "name" : "Brushed_Chrome",
            "pbrMetallicRoughness" : {
                "baseColorFactor" : [
                    0.0,
                    0.0,
                    0.0,
                    1.0
                ],
                "metallicFactor" : 0.0
            }
        },
        {
            "name" : "Skin_02",
            "pbrMetallicRoughness" : {
                "baseColorFactor" : [
                    0.6400000190734865,
                    0.6400000190734865,
                    0.6400000190734865,
                    1.0
                ],
                "metallicFactor" : 0.0
            }
        },
        {
            "alphaMode" : "BLEND",
            "name" : "Tinted_Glass",
            "pbrMetallicRoughness" : {
                "baseColorFactor" : [
                    0.0,
                    0.0,
                    0.0,
                    0.4140000343322754
                ],
                "metallicFactor" : 0.0
            }
        }
    ],
    "meshes" : [
        {
            "name" : "Untitled",
            "primitives" : [
                {
                    "attributes" : {
                        "NORMAL" : 2,
                        "POSITION" : 1,
                        "TANGENT" : 3,
                        "TEXCOORD_0" : 4
                    },
                    "indices" : 0,
                    "material" : 0
                }
            ]
        },
        {
            "name" : "Untitled.002",
            "primitives" : [
                {
                    "attributes" : {
                        "NORMAL" : 7,
                        "POSITION" : 6,
                        "TANGENT" : 8,
                        "TEXCOORD_0" : 9
                    },
                    "indices" : 5,
                    "material" : 1
                }
            ]
        },
        {
            "name" : "Untitled.001",
            "primitives" : [
                {
                    "attributes" : {
                        "NORMAL" : 12,
                        "POSITION" : 11,
                        "TANGENT" : 13,
                        "TEXCOORD_0" : 14
                    },
                    "indices" : 10,
                    "material" : 2
                }
            ]
        }
    ],
    "nodes" : [
        {
            "name" : "Camera",
            "rotation" : [
                0.483536034822464,
                0.33687159419059753,
                -0.20870360732078552,
                0.7804827094078064
            ],
            "translation" : [
                7.481131553649902,
                5.34366512298584,
                6.5076398849487305
            ]
        },
        {
            "name" : "Lamp",
            "rotation" : [
                0.16907575726509094,
                0.7558802962303162,
                -0.27217137813568115,
                0.570947527885437
            ],
            "scale" : [
                1.0,
                1.0,
                0.9999999403953552
            ],
            "translation" : [
                4.076245307922363,
                5.903861999511719,
                -1.0054539442062378
            ]
        },
        {
            "mesh" : 0,
            "name" : "mesh0",
            "rotation" : [
                4.215594984202653e-08,
                -0.034972649067640305,
                4.521335128515602e-08,
                0.9993882775306702
            ],
            "scale" : [
                0.001685416791588068,
                0.0016854169080033898,
                0.001685416791588068
            ],
            "translation" : [
                -0.0055914283730089664,
                0.01642453670501709,
                -0.03192683309316635
            ]
        },
        {
            "mesh" : 2,
            "name" : "mesh0_1",
            "rotation" : [
                4.215594984202653e-08,
                -0.034972649067640305,
                4.521335128515602e-08,
                0.9993882775306702
            ],
            "scale" : [
                0.001685416791588068,
                0.0016854169080033898,
                0.001685416791588068
            ],
            "translation" : [
                -0.0055914283730089664,
                0.01642453670501709,
                -0.03192683309316635
            ]
        },
        {
            "mesh" : 1,
            "name" : "mesh0_2",
            "rotation" : [
                4.215598536916332e-08,
                -0.03497181087732315,
                4.521332286344659e-08,
                0.9993883967399597
            ],
            "scale" : [
                0.0013161518145352602,
                0.0013161518145352602,
                0.0013161518145352602
            ],
            "translation" : [
                -0.004354381933808327,
                0.016726572066545486,
                -0.03444763273000717
            ]
        }
    ],
    "scene" : 0,
    "scenes" : [
        {
            "name" : "Scene",
            "nodes" : [
                4,
                3,
                2,
                1,
                0
            ]
        }
    ]
}
