{
    "accessors" : [
        {
            "bufferView" : 0,
            "componentType" : 5123,
            "count" : 26880,
            "max" : [
                5093
            ],
            "min" : [
                0
            ],
            "type" : "SCALAR"
        },
        {
            "bufferView" : 1,
            "componentType" : 5126,
            "count" : 5094,
            "max" : [
                3.5982000827789307,
                1.864300012588501,
                -3.151900053024292
            ],
            "min" : [
                2.7516000270843506,
                -2.423099994659424,
                -4.031400203704834
            ],
            "type" : "VEC3"
        },
        {
            "bufferView" : 2,
            "componentType" : 5126,
            "count" : 5094,
            "max" : [
                0.9998779296875,
                0.9808343648910522,
                0.999969482421875
            ],
            "min" : [
                -0.999542236328125,
                -0.9812005758285522,
                -0.999969482421875
            ],
            "type" : "VEC3"
        },
        {
            "bufferView" : 3,
            "componentType" : 5126,
            "count" : 5094,
            "max" : [
                0.9843326807022095,
                0.9991337060928345,
                0.8825638890266418,
                1.0
            ],
            "min" : [
                -0.9838421940803528,
                -0.9838230609893799,
                -0.8825646638870239,
                1.0
            ],
            "type" : "VEC4"
        },
        {
            "bufferView" : 4,
            "componentType" : 5126,
            "count" : 5094,
            "max" : [
                1.0,
                1.0
            ],
            "min" : [
                0.0,
                0.0
            ],
            "type" : "VEC2"
        },
        {
            "bufferView" : 5,
            "componentType" : 5123,
            "count" : 6912,
            "max" : [
                1349
            ],
            "min" : [
                0
            ],
            "type" : "SCALAR"
        },
        {
            "bufferView" : 6,
            "componentType" : 5126,
            "count" : 1350,
            "max" : [
                0.5041000247001648,
                2.745800018310547,
                -3.2527999877929688
            ],
            "min" : [
                -0.4666999876499176,
                2.6714999675750732,
                -3.5601000785827637
            ],
            "type" : "VEC3"
        },
        {
            "bufferView" : 7,
            "componentType" : 5126,
            "count" : 1350,
            "max" : [
                0.999969482421875,
                0.999969482421875,
                0.9905087351799011
            ],
            "min" : [
                -0.999969482421875,
                -0.999969482421875,
                -0.9899899363517761
            ],
            "type" : "VEC3"
        },
        {
            "bufferView" : 8,
            "componentType" : 5126,
            "count" : 1350,
            "max" : [
                0.9999961256980896,
                0.9903813004493713,
                0.8029633164405823,
                1.0
            ],
            "min" : [
                -0.999932050704956,
                -0.9904053807258606,
                -0.7974090576171875,
                1.0
            ],
            "type" : "VEC4"
        },
        {
            "bufferView" : 9,
            "componentType" : 5126,
            "count" : 1350,
            "max" : [
                1.0,
                1.0
            ],
            "min" : [
                0.0,
                0.0
            ],
            "type" : "VEC2"
        },
        {
            "bufferView" : 10,
            "componentType" : 5123,
            "count" : 6528,
            "max" : [
                1224
            ],
            "min" : [
                0
            ],
            "type" : "SCALAR"
        },
        {
            "bufferView" : 11,
            "componentType" : 5126,
            "count" : 1225,
            "max" : [
                -0.303600013256073,
                2.8564999103546143,
                -2.2260000705718994
            ],
            "min" : [
                -2.7421000003814697,
                1.840000033378601,
                -4.388599872589111
            ],
            "type" : "VEC3"
        },
        {
            "bufferView" : 12,
            "componentType" : 5126,
            "count" : 1225,
            "max" : [
                0.05069124326109886,
                0.9974364638328552,
                0.29590746760368347
            ],
            "min" : [
                -0.6469008326530457,
                0.7546311616897583,
                -0.07507553696632385
            ],
            "type" : "VEC3"
        },
        {
            "bufferView" : 13,
            "componentType" : 5126,
            "count" : 1225,
            "max" : [
                0.9999997019767761,
                0.6539725065231323,
                0.5918102264404297,
                1.0
            ],
            "min" : [
                0.6532096862792969,
                -0.10679753124713898,
                -0.5777261257171631,
                -1.0
            ],
            "type" : "VEC4"
        },
        {
            "bufferView" : 14,
            "componentType" : 5126,
            "count" : 1225,
            "max" : [
                1.0,
                1.0
            ],
            "min" : [
                0.0,
                0.0
            ],
            "type" : "VEC2"
        },
        {
            "bufferView" : 15,
            "componentType" : 5123,
            "count" : 26880,
            "max" : [
                5093
            ],
            "min" : [
                0
            ],
            "type" : "SCALAR"
        },
        {
            "bufferView" : 16,
            "componentType" : 5126,
            "count" : 5094,
            "max" : [
                -2.6981000900268555,
                1.8386000394821167,
                -3.1563000679016113
            ],
            "min" : [
                -3.794800043106079,
                -2.3940999507904053,
                -4.035799980163574
            ],
            "type" : "VEC3"
        },
        {
            "bufferView" : 17,
            "componentType" : 5126,
            "count" : 5094,
            "max" : [
                0.999298095703125,
                0.9866939187049866,
                0.99993896484375
            ],
            "min" : [
                -0.9986876845359802,
                -0.9885555505752563,
                -0.999969482421875
            ],
            "type" : "VEC3"
        },
        {
            "bufferView" : 18,
            "componentType" : 5126,
            "count" : 5094,
            "max" : [
                0.9912475347518921,
                0.9712313413619995,
                0.8824944496154785,
                1.0
            ],
            "min" : [
                -0.9908589720726013,
                -0.9995064735412598,
                -0.8823075890541077,
                1.0
            ],
            "type" : "VEC4"
        },
        {
            "bufferView" : 19,
            "componentType" : 5126,
            "count" : 5094,
            "max" : [
                1.0,
                1.0
            ],
            "min" : [
                0.0,
                0.0
            ],
            "type" : "VEC2"
        },
        {
            "bufferView" : 20,
            "componentType" : 5123,
            "count" : 6528,
            "max" : [
                1224
            ],
            "min" : [
                0
            ],
            "type" : "SCALAR"
        },
        {
            "bufferView" : 21,
            "componentType" : 5126,
            "count" : 1225,
            "max" : [
                2.7945001125335693,
                2.8273000717163086,
                -2.230600118637085
            ],
            "min" : [
                0.26089999079704285,
                1.8664000034332275,
                -4.385499954223633
            ],
            "type" : "VEC3"
        },
        {
            "bufferView" : 22,
            "componentType" : 5126,
            "count" : 1225,
            "max" : [
                0.025025177747011185,
                -0.7818231582641602,
                0.07242042571306229
            ],
            "min" : [
                -0.6117435097694397,
                -0.9957884550094604,
                -0.3010040521621704
            ],
            "type" : "VEC3"
        },
        {
            "bufferView" : 23,
            "componentType" : 5126,
            "count" : 1225,
            "max" : [
                -0.6823740005493164,
                0.620028018951416,
                0.5812768340110779,
                1.0
            ],
            "min" : [
                -0.9999992847442627,
                -0.08871425688266754,
                -0.5772920250892639,
                1.0
            ],
            "type" : "VEC4"
        },
        {
            "bufferView" : 24,
            "componentType" : 5126,
            "count" : 1225,
            "max" : [
                1.0,
                1.0
            ],
            "min" : [
                0.0,
                0.0
            ],
            "type" : "VEC2"
        },
        {
            "bufferView" : 25,
            "componentType" : 5123,
            "count" : 606,
            "max" : [
                605
            ],
            "min" : [
                0
            ],
            "type" : "SCALAR"
        },
        {
            "bufferView" : 26,
            "componentType" : 5126,
            "count" : 606,
            "max" : [
                1.9630000591278076,
                -1.291200041770935,
                -0.2842999994754791
            ],
            "min" : [
                -1.9630000591278076,
                -2.1201999187469482,
                -2.0116000175476074
            ],
            "type" : "VEC3"
        },
        {
            "bufferView" : 27,
            "componentType" : 5126,
            "count" : 606,
            "max" : [
                0.8824473023414612,
                -0.39435774087905884,
                0.8047181963920593
            ],
            "min" : [
                -0.8824473023414612,
                -0.9975655674934387,
                -0.5657539963722229
            ],
            "type" : "VEC3"
        },
        {
            "bufferView" : 28,
            "componentType" : 5126,
            "count" : 606,
            "max" : [
                0.1491442769765854,
                0.9483420848846436,
                0.6480379700660706,
                1.0
            ],
            "min" : [
                -0.9999250173568726,
                -0.9402104020118713,
                -0.6482018232345581,
                -1.0
            ],
            "type" : "VEC4"
        },
        {
            "bufferView" : 29,
            "componentType" : 5126,
            "count" : 606,
            "max" : [
                0.7232999801635742,
                0.4677000045776367
            ],
            "min" : [
                0.2766999900341034,
                0.2558000087738037
            ],
            "type" : "VEC2"
        }
    ],
    "asset" : {
        "generator" : "Khronos Blender glTF 2.0 exporter",
        "version" : "2.0"
    },
    "bufferViews" : [
        {
            "buffer" : 0,
            "byteLength" : 53760,
            "byteOffset" : 0,
            "target" : 34963
        },
        {
            "buffer" : 0,
            "byteLength" : 61128,
            "byteOffset" : 53760,
            "target" : 34962
        },
        {
            "buffer" : 0,
            "byteLength" : 61128,
            "byteOffset" : 114888,
            "target" : 34962
        },
        {
            "buffer" : 0,
            "byteLength" : 81504,
            "byteOffset" : 176016,
            "target" : 34962
        },
        {
            "buffer" : 0,
            "byteLength" : 40752,
            "byteOffset" : 257520,
            "target" : 34962
        },
        {
            "buffer" : 0,
            "byteLength" : 13824,
            "byteOffset" : 298272,
            "target" : 34963
        },
        {
            "buffer" : 0,
            "byteLength" : 16200,
            "byteOffset" : 312096,
            "target" : 34962
        },
        {
            "buffer" : 0,
            "byteLength" : 16200,
            "byteOffset" : 328296,
            "target" : 34962
        },
        {
            "buffer" : 0,
            "byteLength" : 21600,
            "byteOffset" : 344496,
            "target" : 34962
        },
        {
            "buffer" : 0,
            "byteLength" : 10800,
            "byteOffset" : 366096,
            "target" : 34962
        },
        {
            "buffer" : 0,
            "byteLength" : 13056,
            "byteOffset" : 376896,
            "target" : 34963
        },
        {
            "buffer" : 0,
            "byteLength" : 14700,
            "byteOffset" : 389952,
            "target" : 34962
        },
        {
            "buffer" : 0,
            "byteLength" : 14700,
            "byteOffset" : 404652,
            "target" : 34962
        },
        {
            "buffer" : 0,
            "byteLength" : 19600,
            "byteOffset" : 419352,
            "target" : 34962
        },
        {
            "buffer" : 0,
            "byteLength" : 9800,
            "byteOffset" : 438952,
            "target" : 34962
        },
        {
            "buffer" : 0,
            "byteLength" : 53760,
            "byteOffset" : 448752,
            "target" : 34963
        },
        {
            "buffer" : 0,
            "byteLength" : 61128,
            "byteOffset" : 502512,
            "target" : 34962
        },
        {
            "buffer" : 0,
            "byteLength" : 61128,
            "byteOffset" : 563640,
            "target" : 34962
        },
        {
            "buffer" : 0,
            "byteLength" : 81504,
            "byteOffset" : 624768,
            "target" : 34962
        },
        {
            "buffer" : 0,
            "byteLength" : 40752,
            "byteOffset" : 706272,
            "target" : 34962
        },
        {
            "buffer" : 0,
            "byteLength" : 13056,
            "byteOffset" : 747024,
            "target" : 34963
        },
        {
            "buffer" : 0,
            "byteLength" : 14700,
            "byteOffset" : 760080,
            "target" : 34962
        },
        {
            "buffer" : 0,
            "byteLength" : 14700,
            "byteOffset" : 774780,
            "target" : 34962
        },
        {
            "buffer" : 0,
            "byteLength" : 19600,
            "byteOffset" : 789480,
            "target" : 34962
        },
        {
            "buffer" : 0,
            "byteLength" : 9800,
            "byteOffset" : 809080,
            "target" : 34962
        },
        {
            "buffer" : 0,
            "byteLength" : 1212,
            "byteOffset" : 818880,
            "target" : 34963
        },
        {
            "buffer" : 0,
            "byteLength" : 7272,
            "byteOffset" : 820092,
            "target" : 34962
        },
        {
            "buffer" : 0,
            "byteLength" : 7272,
            "byteOffset" : 827364,
            "target" : 34962
        },
        {
            "buffer" : 0,
            "byteLength" : 9696,
            "byteOffset" : 834636,
            "target" : 34962
        },
        {
            "buffer" : 0,
            "byteLength" : 4848,
            "byteOffset" : 844332,
            "target" : 34962
        }
    ],
    "buffers" : [
        {
            "byteLength" : 849180,
            "uri" : "glass11.bin"
        }
    ],
    "materials" : [
        {
            "alphaMode" : "BLEND",
            "name" : "lambert1",
            "pbrMetallicRoughness" : {
                "baseColorFactor" : [
                    0.7843000292778015,
                    0.7843000292778015,
                    0.7843000292778015,
                    1.0
                ],
                "metallicFactor" : 0.0
            }
        },
        {
            "alphaMode" : "BLEND",
            "name" : "Nuovo.001",
            "pbrMetallicRoughness" : {
                "baseColorFactor" : [
                    0.007799999788403511,
                    0.027499999850988388,
                    0.08630000054836273,
                    0.8500000238418579
                ],
                "metallicFactor" : 0.0
            }
        },
        {
            "alphaMode" : "BLEND",
            "name" : "Nuovo_1.001",
            "pbrMetallicRoughness" : {
                "baseColorFactor" : [
                    0.0,
                    0.0,
                    0.0,
                    0.8500000238418579
                ],
                "metallicFactor" : 0.0
            }
        }
    ],
    "meshes" : [
        {
            "name" : "Glasses_HyperNURBS_4_Cubo1.001",
            "primitives" : [
                {
                    "attributes" : {
                        "NORMAL" : 2,
                        "POSITION" : 1,
                        "TANGENT" : 3,
                        "TEXCOORD_0" : 4
                    },
                    "indices" : 0,
                    "material" : 2
                }
            ]
        },
        {
            "name" : "Glasses_HyperNURBS_2_Cubo.001",
            "primitives" : [
                {
                    "attributes" : {
                        "NORMAL" : 7,
                        "POSITION" : 6,
                        "TANGENT" : 8,
                        "TEXCOORD_0" : 9
                    },
                    "indices" : 5,
                    "material" : 2
                }
            ]
        },
        {
            "name" : "Glasses_HyperNURBS_Piano1.001",
            "primitives" : [
                {
                    "attributes" : {
                        "NORMAL" : 12,
                        "POSITION" : 11,
                        "TANGENT" : 13,
                        "TEXCOORD_0" : 14
                    },
                    "indices" : 10,
                    "material" : 2
                }
            ]
        },
        {
            "name" : "Glasses_HyperNURBS_3_Cubo2.001",
            "primitives" : [
                {
                    "attributes" : {
                        "NORMAL" : 17,
                        "POSITION" : 16,
                        "TANGENT" : 18,
                        "TEXCOORD_0" : 19
                    },
                    "indices" : 15,
                    "material" : 2
                }
            ]
        },
        {
            "name" : "Glasses_HyperNURBS_1_Piano.001",
            "primitives" : [
                {
                    "attributes" : {
                        "NORMAL" : 22,
                        "POSITION" : 21,
                        "TANGENT" : 23,
                        "TEXCOORD_0" : 24
                    },
                    "indices" : 20,
                    "material" : 1
                }
            ]
        },
        {
            "name" : "facemesh",
            "primitives" : [
                {
                    "attributes" : {
                        "NORMAL" : 27,
                        "POSITION" : 26,
                        "TANGENT" : 28,
                        "TEXCOORD_0" : 29
                    },
                    "indices" : 25,
                    "material" : 0
                }
            ]
        }
    ],
    "nodes" : [
        {
            "name" : "Camera",
            "rotation" : [
                0.483536034822464,
                0.33687159419059753,
                -0.20870360732078552,
                0.7804827094078064
            ],
            "translation" : [
                7.481131553649902,
                5.34366512298584,
                6.5076398849487305
            ]
        },
        {
            "mesh" : 5,
            "name" : "facemesh",
            "rotation" : [
                0.7071068286895752,
                0.0,
                -0.0,
                0.7071067094802856
            ]
        },
        {
            "mesh" : 4,
            "name" : "Glasses_HyperNURBS_1_Piano.001",
            "rotation" : [
                0.7071068286895752,
                0.0,
                -0.0,
                0.7071067094802856
            ]
        },
        {
            "mesh" : 1,
            "name" : "Glasses_HyperNURBS_2_Cubo.001",
            "rotation" : [
                0.7071068286895752,
                0.0,
                -0.0,
                0.7071067094802856
            ]
        },
        {
            "mesh" : 3,
            "name" : "Glasses_HyperNURBS_3_Cubo2.001",
            "rotation" : [
                0.7071068286895752,
                0.0,
                -0.0,
                0.7071067094802856
            ]
        },
        {
            "mesh" : 0,
            "name" : "Glasses_HyperNURBS_4_Cubo1.001",
            "rotation" : [
                0.7071068286895752,
                0.0,
                -0.0,
                0.7071067094802856
            ]
        },
        {
            "mesh" : 2,
            "name" : "Glasses_HyperNURBS_Piano1.001",
            "rotation" : [
                0.7071068286895752,
                0.0,
                -0.0,
                0.7071067094802856
            ]
        },
        {
            "name" : "Lamp",
            "rotation" : [
                0.16907575726509094,
                0.7558802962303162,
                -0.27217137813568115,
                0.570947527885437
            ],
            "scale" : [
                1.0,
                1.0,
                0.9999999403953552
            ],
            "translation" : [
                4.076245307922363,
                5.903861999511719,
                -1.0054539442062378
            ]
        }
    ],
    "scene" : 0,
    "scenes" : [
        {
            "name" : "Scene",
            "nodes" : [
                2,
                6,
                3,
                4,
                5,
                1,
                7,
                0
            ]
        }
    ]
}
