{
    "accessors" : [
        {
            "bufferView" : 0,
            "componentType" : 5123,
            "count" : 2256,
            "max" : [
                506
            ],
            "min" : [
                0
            ],
            "type" : "SCALAR"
        },
        {
            "bufferView" : 1,
            "componentType" : 5126,
            "count" : 507,
            "max" : [
                1.6768183708190918,
                20.657489776611328,
                4.751374244689941
            ],
            "min" : [
                -16.56532859802246,
                12.085792541503906,
                3.290450096130371
            ],
            "type" : "VEC3"
        },
        {
            "bufferView" : 2,
            "componentType" : 5126,
            "count" : 507,
            "max" : [
                0.999908447265625,
                0.9903256297111511,
                0.9998779296875
            ],
            "min" : [
                -0.999786376953125,
                -0.9607226848602295,
                -0.999786376953125
            ],
            "type" : "VEC3"
        },
        {
            "bufferView" : 3,
            "componentType" : 5126,
            "count" : 507,
            "max" : [
                0.9991403222084045,
                0.9828498363494873,
                0.9198637008666992,
                1.0
            ],
            "min" : [
                -0.9997076392173767,
                -0.9847484230995178,
                -0.8196085691452026,
                -1.0
            ],
            "type" : "VEC4"
        },
        {
            "bufferView" : 4,
            "componentType" : 5126,
            "count" : 507,
            "max" : [
                1.0246000289916992,
                0.6527999937534332
            ],
            "min" : [
                0.003100000089034438,
                0.3273000121116638
            ],
            "type" : "VEC2"
        },
        {
            "bufferView" : 5,
            "componentType" : 5123,
            "count" : 10668,
            "max" : [
                2460
            ],
            "min" : [
                0
            ],
            "type" : "SCALAR"
        },
        {
            "bufferView" : 6,
            "componentType" : 5126,
            "count" : 2461,
            "max" : [
                44.866424560546875,
                21.83069610595703,
                20.95522689819336
            ],
            "min" : [
                -51.77763366699219,
                -13.184199333190918,
                -31.28621482849121
            ],
            "type" : "VEC3"
        },
        {
            "bufferView" : 7,
            "componentType" : 5126,
            "count" : 2461,
            "max" : [
                0.9978026747703552,
                0.999267578125,
                0.99951171875
            ],
            "min" : [
                -0.9990233778953552,
                -0.999603271484375,
                -0.9951170086860657
            ],
            "type" : "VEC3"
        },
        {
            "bufferView" : 8,
            "componentType" : 5126,
            "count" : 2461,
            "max" : [
                1.0,
                0.9955946207046509,
                0.9981328845024109,
                1.0
            ],
            "min" : [
                -0.9982449412345886,
                -0.9998588562011719,
                -0.9923399686813354,
                -1.0
            ],
            "type" : "VEC4"
        },
        {
            "bufferView" : 9,
            "componentType" : 5126,
            "count" : 2461,
            "max" : [
                1.0879000425338745,
                0.8050000071525574
            ],
            "min" : [
                0.0,
                0.27389997243881226
            ],
            "type" : "VEC2"
        },
        {
            "bufferView" : 10,
            "componentType" : 5123,
            "count" : 8640,
            "max" : [
                1762
            ],
            "min" : [
                0
            ],
            "type" : "SCALAR"
        },
        {
            "bufferView" : 11,
            "componentType" : 5126,
            "count" : 1763,
            "max" : [
                35.75963592529297,
                21.226696014404297,
                22.770648956298828
            ],
            "min" : [
                -44.01969528198242,
                -12.586798667907715,
                12.99254035949707
            ],
            "type" : "VEC3"
        },
        {
            "bufferView" : 12,
            "componentType" : 5126,
            "count" : 1763,
            "max" : [
                0.9897152781486511,
                0.9927060604095459,
                0.99981689453125
            ],
            "min" : [
                -0.9899594187736511,
                -0.9934385418891907,
                -0.99981689453125
            ],
            "type" : "VEC3"
        },
        {
            "bufferView" : 13,
            "componentType" : 5126,
            "count" : 1763,
            "max" : [
                0.999860405921936,
                0.99952632188797,
                0.993849515914917,
                1.0
            ],
            "min" : [
                -0.9943795204162598,
                -0.9934790730476379,
                -0.952796459197998,
                -1.0
            ],
            "type" : "VEC4"
        },
        {
            "bufferView" : 14,
            "componentType" : 5126,
            "count" : 1763,
            "max" : [
                1.0388000011444092,
                0.7042999863624573
            ],
            "min" : [
                0.0,
                0.25550001859664917
            ],
            "type" : "VEC2"
        }
    ],
    "asset" : {
        "generator" : "Khronos Blender glTF 2.0 exporter",
        "version" : "2.0"
    },
    "bufferViews" : [
        {
            "buffer" : 0,
            "byteLength" : 4512,
            "byteOffset" : 0,
            "target" : 34963
        },
        {
            "buffer" : 0,
            "byteLength" : 6084,
            "byteOffset" : 4512,
            "target" : 34962
        },
        {
            "buffer" : 0,
            "byteLength" : 6084,
            "byteOffset" : 10596,
            "target" : 34962
        },
        {
            "buffer" : 0,
            "byteLength" : 8112,
            "byteOffset" : 16680,
            "target" : 34962
        },
        {
            "buffer" : 0,
            "byteLength" : 4056,
            "byteOffset" : 24792,
            "target" : 34962
        },
        {
            "buffer" : 0,
            "byteLength" : 21336,
            "byteOffset" : 28848,
            "target" : 34963
        },
        {
            "buffer" : 0,
            "byteLength" : 29532,
            "byteOffset" : 50184,
            "target" : 34962
        },
        {
            "buffer" : 0,
            "byteLength" : 29532,
            "byteOffset" : 79716,
            "target" : 34962
        },
        {
            "buffer" : 0,
            "byteLength" : 39376,
            "byteOffset" : 109248,
            "target" : 34962
        },
        {
            "buffer" : 0,
            "byteLength" : 19688,
            "byteOffset" : 148624,
            "target" : 34962
        },
        {
            "buffer" : 0,
            "byteLength" : 17280,
            "byteOffset" : 168312,
            "target" : 34963
        },
        {
            "buffer" : 0,
            "byteLength" : 21156,
            "byteOffset" : 185592,
            "target" : 34962
        },
        {
            "buffer" : 0,
            "byteLength" : 21156,
            "byteOffset" : 206748,
            "target" : 34962
        },
        {
            "buffer" : 0,
            "byteLength" : 28208,
            "byteOffset" : 227904,
            "target" : 34962
        },
        {
            "buffer" : 0,
            "byteLength" : 14104,
            "byteOffset" : 256112,
            "target" : 34962
        }
    ],
    "buffers" : [
        {
            "byteLength" : 270216,
            "uri" : "glass3.bin"
        }
    ],
    "materials" : [
        {
            "name" : "Brushed_Chrome",
            "pbrMetallicRoughness" : {
                "baseColorFactor" : [
                    0.0,
                    0.0,
                    0.0,
                    1.0
                ],
                "metallicFactor" : 0.0
            }
        },
        {
            "name" : "Skin_02",
            "pbrMetallicRoughness" : {
                "baseColorFactor" : [
                    0.6400000190734865,
                    0.6400000190734865,
                    0.6400000190734865,
                    1.0
                ],
                "metallicFactor" : 0.0
            }
        },
        {
            "alphaMode" : "BLEND",
            "name" : "Tinted_Glass",
            "pbrMetallicRoughness" : {
                "baseColorFactor" : [
                    0.0,
                    0.0,
                    0.0,
                    0.4140000343322754
                ],
                "metallicFactor" : 0.0
            }
        }
    ],
    "meshes" : [
        {
            "name" : "Untitled.003",
            "primitives" : [
                {
                    "attributes" : {
                        "NORMAL" : 2,
                        "POSITION" : 1,
                        "TANGENT" : 3,
                        "TEXCOORD_0" : 4
                    },
                    "indices" : 0,
                    "material" : 1
                }
            ]
        },
        {
            "name" : "Untitled.005",
            "primitives" : [
                {
                    "attributes" : {
                        "NORMAL" : 7,
                        "POSITION" : 6,
                        "TANGENT" : 8,
                        "TEXCOORD_0" : 9
                    },
                    "indices" : 5,
                    "material" : 0
                }
            ]
        },
        {
            "name" : "Untitled.004",
            "primitives" : [
                {
                    "attributes" : {
                        "NORMAL" : 12,
                        "POSITION" : 11,
                        "TANGENT" : 13,
                        "TEXCOORD_0" : 14
                    },
                    "indices" : 10,
                    "material" : 2
                }
            ]
        }
    ],
    "nodes" : [
        {
            "name" : "Camera",
            "rotation" : [
                0.483536034822464,
                0.33687159419059753,
                -0.20870360732078552,
                0.7804827094078064
            ],
            "translation" : [
                7.481131553649902,
                5.34366512298584,
                6.5076398849487305
            ]
        },
        {
            "name" : "Lamp",
            "rotation" : [
                0.16907575726509094,
                0.7558802962303162,
                -0.27217137813568115,
                0.570947527885437
            ],
            "scale" : [
                1.0,
                1.0,
                0.9999999403953552
            ],
            "translation" : [
                4.076245307922363,
                5.903861999511719,
                -1.0054539442062378
            ]
        },
        {
            "mesh" : 1,
            "name" : "mesh0",
            "rotation" : [
                4.215594984202653e-08,
                -0.034972649067640305,
                4.521335128515602e-08,
                0.9993882775306702
            ],
            "scale" : [
                0.001685416791588068,
                0.0016854169080033898,
                0.001685416791588068
            ],
            "translation" : [
                0.004408571403473616,
                0.01642453670501709,
                1.0785847902297974
            ]
        },
        {
            "mesh" : 2,
            "name" : "mesh0_1",
            "rotation" : [
                4.215594984202653e-08,
                -0.034972649067640305,
                4.521335128515602e-08,
                0.9993882775306702
            ],
            "scale" : [
                0.001685416791588068,
                0.0016854169080033898,
                0.001685416791588068
            ],
            "translation" : [
                0.004408571403473616,
                0.01642453670501709,
                1.0785847902297974
            ]
        },
        {
            "mesh" : 0,
            "name" : "mesh0_2",
            "rotation" : [
                0.017441673204302788,
                -0.03496648371219635,
                0.0006103839841671288,
                0.9992361068725586
            ],
            "scale" : [
                0.0013161518145352602,
                0.0013161518145352602,
                0.001316151930950582
            ],
            "translation" : [
                0.005645617842674255,
                -0.0032734274864196777,
                1.101105809211731
            ]
        }
    ],
    "scene" : 0,
    "scenes" : [
        {
            "name" : "Scene",
            "nodes" : [
                4,
                3,
                2,
                1,
                0
            ]
        }
    ]
}
