{
    "accessors" : [
        {
            "bufferView" : 0,
            "componentType" : 5123,
            "count" : 245760,
            "max" : [
                48513
            ],
            "min" : [
                0
            ],
            "type" : "SCALAR"
        },
        {
            "bufferView" : 1,
            "componentType" : 5126,
            "count" : 48514,
            "max" : [
                0.8722000122070312,
                0.05653006583452225,
                0.7419000267982483
            ],
            "min" : [
                -1.7086000442504883,
                -2.180069923400879,
                0.2704000174999237
            ],
            "type" : "VEC3"
        },
        {
            "bufferView" : 2,
            "componentType" : 5126,
            "count" : 48514,
            "max" : [
                0.999725341796875,
                0.999969482421875,
                0.999969482421875
            ],
            "min" : [
                -0.99993896484375,
                -0.9998779296875,
                -0.999969482421875
            ],
            "type" : "VEC3"
        },
        {
            "bufferView" : 3,
            "componentType" : 5126,
            "count" : 48514,
            "max" : [
                1.0,
                0.9999444484710693,
                0.9999926090240479,
                1.0
            ],
            "min" : [
                -0.9998416304588318,
                -0.9999463558197021,
                -0.9999740719795227,
                -1.0
            ],
            "type" : "VEC4"
        },
        {
            "bufferView" : 4,
            "componentType" : 5126,
            "count" : 48514,
            "max" : [
                1.0,
                1.0
            ],
            "min" : [
                0.0,
                0.0
            ],
            "type" : "VEC2"
        },
        {
            "bufferView" : 5,
            "componentType" : 5123,
            "count" : 606,
            "max" : [
                197
            ],
            "min" : [
                0
            ],
            "type" : "SCALAR"
        },
        {
            "bufferView" : 6,
            "componentType" : 5126,
            "count" : 198,
            "max" : [
                1.9630000591278076,
                -1.291200041770935,
                -0.2842999994754791
            ],
            "min" : [
                -1.9630000591278076,
                -2.1201999187469482,
                -2.0116000175476074
            ],
            "type" : "VEC3"
        },
        {
            "bufferView" : 7,
            "componentType" : 5126,
            "count" : 198,
            "max" : [
                0.8824427127838135,
                -0.39432966709136963,
                0.8041017055511475
            ],
            "min" : [
                -0.8824427127838135,
                -0.9974364638328552,
                -0.5504928827285767
            ],
            "type" : "VEC3"
        },
        {
            "bufferView" : 8,
            "componentType" : 5126,
            "count" : 198,
            "max" : [
                0.21034343540668488,
                0.9261023998260498,
                0.6935212016105652,
                1.0
            ],
            "min" : [
                -1.0,
                -0.926092267036438,
                -0.6932971477508545,
                -1.0
            ],
            "type" : "VEC4"
        },
        {
            "bufferView" : 9,
            "componentType" : 5126,
            "count" : 198,
            "max" : [
                0.7232999801635742,
                0.4677000045776367
            ],
            "min" : [
                0.2766999900341034,
                0.2558000087738037
            ],
            "type" : "VEC2"
        },
        {
            "bufferView" : 10,
            "componentType" : 5123,
            "count" : 10752,
            "max" : [
                2021
            ],
            "min" : [
                0
            ],
            "type" : "SCALAR"
        },
        {
            "bufferView" : 11,
            "componentType" : 5126,
            "count" : 2022,
            "max" : [
                0.7544999718666077,
                -0.18809999525547028,
                0.7123000025749207
            ],
            "min" : [
                0.09560000151395798,
                -0.49639999866485596,
                0.29760000109672546
            ],
            "type" : "VEC3"
        },
        {
            "bufferView" : 12,
            "componentType" : 5126,
            "count" : 2022,
            "max" : [
                0.9902645945549011,
                0.9989928603172302,
                0.9941709637641907
            ],
            "min" : [
                -0.9468978047370911,
                -0.99993896484375,
                -0.999542236328125
            ],
            "type" : "VEC3"
        },
        {
            "bufferView" : 13,
            "componentType" : 5126,
            "count" : 2022,
            "max" : [
                0.9991551637649536,
                0.9576963782310486,
                0.7628549933433533,
                1.0
            ],
            "min" : [
                -0.9970296025276184,
                -0.9945469498634338,
                -0.8900390267372131,
                1.0
            ],
            "type" : "VEC4"
        },
        {
            "bufferView" : 14,
            "componentType" : 5126,
            "count" : 2022,
            "max" : [
                1.0,
                1.0
            ],
            "min" : [
                0.0,
                0.0
            ],
            "type" : "VEC2"
        },
        {
            "bufferView" : 15,
            "componentType" : 5123,
            "count" : 10752,
            "max" : [
                2021
            ],
            "min" : [
                0
            ],
            "type" : "SCALAR"
        },
        {
            "bufferView" : 16,
            "componentType" : 5126,
            "count" : 2022,
            "max" : [
                -0.1387999951839447,
                0.021299999207258224,
                0.7139000296592712
            ],
            "min" : [
                -0.8515999913215637,
                -0.125,
                0.29919999837875366
            ],
            "type" : "VEC3"
        },
        {
            "bufferView" : 17,
            "componentType" : 5126,
            "count" : 2022,
            "max" : [
                0.9953917264938354,
                0.999176025390625,
                0.999755859375
            ],
            "min" : [
                -0.9635608792304993,
                -0.9998779296875,
                -0.9953612089157104
            ],
            "type" : "VEC3"
        },
        {
            "bufferView" : 18,
            "componentType" : 5126,
            "count" : 2022,
            "max" : [
                0.9999892711639404,
                0.964778482913971,
                0.7647296786308289,
                1.0
            ],
            "min" : [
                -0.9996578693389893,
                -0.9947383403778076,
                -0.8883394002914429,
                1.0
            ],
            "type" : "VEC4"
        },
        {
            "bufferView" : 19,
            "componentType" : 5126,
            "count" : 2022,
            "max" : [
                1.0,
                1.0
            ],
            "min" : [
                0.0,
                0.0
            ],
            "type" : "VEC2"
        }
    ],
    "asset" : {
        "generator" : "Khronos Blender glTF 2.0 exporter",
        "version" : "2.0"
    },
    "bufferViews" : [
        {
            "buffer" : 0,
            "byteLength" : 491520,
            "byteOffset" : 0,
            "target" : 34963
        },
        {
            "buffer" : 0,
            "byteLength" : 582168,
            "byteOffset" : 491520,
            "target" : 34962
        },
        {
            "buffer" : 0,
            "byteLength" : 582168,
            "byteOffset" : 1073688,
            "target" : 34962
        },
        {
            "buffer" : 0,
            "byteLength" : 776224,
            "byteOffset" : 1655856,
            "target" : 34962
        },
        {
            "buffer" : 0,
            "byteLength" : 388112,
            "byteOffset" : 2432080,
            "target" : 34962
        },
        {
            "buffer" : 0,
            "byteLength" : 1212,
            "byteOffset" : 2820192,
            "target" : 34963
        },
        {
            "buffer" : 0,
            "byteLength" : 2376,
            "byteOffset" : 2821404,
            "target" : 34962
        },
        {
            "buffer" : 0,
            "byteLength" : 2376,
            "byteOffset" : 2823780,
            "target" : 34962
        },
        {
            "buffer" : 0,
            "byteLength" : 3168,
            "byteOffset" : 2826156,
            "target" : 34962
        },
        {
            "buffer" : 0,
            "byteLength" : 1584,
            "byteOffset" : 2829324,
            "target" : 34962
        },
        {
            "buffer" : 0,
            "byteLength" : 21504,
            "byteOffset" : 2830908,
            "target" : 34963
        },
        {
            "buffer" : 0,
            "byteLength" : 24264,
            "byteOffset" : 2852412,
            "target" : 34962
        },
        {
            "buffer" : 0,
            "byteLength" : 24264,
            "byteOffset" : 2876676,
            "target" : 34962
        },
        {
            "buffer" : 0,
            "byteLength" : 32352,
            "byteOffset" : 2900940,
            "target" : 34962
        },
        {
            "buffer" : 0,
            "byteLength" : 16176,
            "byteOffset" : 2933292,
            "target" : 34962
        },
        {
            "buffer" : 0,
            "byteLength" : 21504,
            "byteOffset" : 2949468,
            "target" : 34963
        },
        {
            "buffer" : 0,
            "byteLength" : 24264,
            "byteOffset" : 2970972,
            "target" : 34962
        },
        {
            "buffer" : 0,
            "byteLength" : 24264,
            "byteOffset" : 2995236,
            "target" : 34962
        },
        {
            "buffer" : 0,
            "byteLength" : 32352,
            "byteOffset" : 3019500,
            "target" : 34962
        },
        {
            "buffer" : 0,
            "byteLength" : 16176,
            "byteOffset" : 3051852,
            "target" : 34962
        }
    ],
    "buffers" : [
        {
            "byteLength" : 3068028,
            "uri" : "glass8.bin"
        }
    ],
    "materials" : [
        {
            "alphaMode" : "BLEND",
            "name" : "frame",
            "pbrMetallicRoughness" : {
                "baseColorFactor" : [
                    0.019600000232458115,
                    0.019600000232458115,
                    0.019600000232458115,
                    1.0
                ],
                "metallicFactor" : 0.0
            }
        },
        {
            "alphaMode" : "BLEND",
            "name" : "lambert1",
            "pbrMetallicRoughness" : {
                "baseColorFactor" : [
                    0.7843000292778015,
                    0.7843000292778015,
                    0.7843000292778015,
                    1.0
                ],
                "metallicFactor" : 0.0
            }
        },
        {
            "alphaMode" : "BLEND",
            "name" : "Mat_2",
            "pbrMetallicRoughness" : {
                "baseColorFactor" : [
                    0.15289999544620514,
                    0.3528999984264374,
                    0.8666999936103821,
                    0.8500000238418579
                ],
                "metallicFactor" : 0.0
            }
        }
    ],
    "meshes" : [
        {
            "name" : "glasses_frame_HyperNURBS_Cube4_Cube",
            "primitives" : [
                {
                    "attributes" : {
                        "NORMAL" : 2,
                        "POSITION" : 1,
                        "TANGENT" : 3,
                        "TEXCOORD_0" : 4
                    },
                    "indices" : 0,
                    "material" : 0
                }
            ]
        },
        {
            "name" : "facemesh",
            "primitives" : [
                {
                    "attributes" : {
                        "NORMAL" : 7,
                        "POSITION" : 6,
                        "TANGENT" : 8,
                        "TEXCOORD_0" : 9
                    },
                    "indices" : 5,
                    "material" : 1
                }
            ]
        },
        {
            "name" : "glasses_lens_right_lens_Cube1_Cube2",
            "primitives" : [
                {
                    "attributes" : {
                        "NORMAL" : 12,
                        "POSITION" : 11,
                        "TANGENT" : 13,
                        "TEXCOORD_0" : 14
                    },
                    "indices" : 10,
                    "material" : 2
                }
            ]
        },
        {
            "name" : "glasses_lens_left_lens_Cube5_Cube3",
            "primitives" : [
                {
                    "attributes" : {
                        "NORMAL" : 17,
                        "POSITION" : 16,
                        "TANGENT" : 18,
                        "TEXCOORD_0" : 19
                    },
                    "indices" : 15,
                    "material" : 2
                }
            ]
        }
    ],
    "nodes" : [
        {
            "name" : "Camera",
            "rotation" : [
                0.483536034822464,
                0.33687159419059753,
                -0.20870360732078552,
                0.7804827094078064
            ],
            "translation" : [
                7.481131553649902,
                5.34366512298584,
                6.5076398849487305
            ]
        },
        {
            "mesh" : 1,
            "name" : "facemesh",
            "rotation" : [
                0.7071068286895752,
                0.0,
                -0.0,
                0.7071067094802856
            ]
        },
        {
            "mesh" : 0,
            "name" : "glasses_frame_HyperNURBS_Cube4_Cube",
            "rotation" : [
                0.6855820417404175,
                -0.14933910965919495,
                0.1279650181531906,
                0.7009280323982239
            ],
            "scale" : [
                3.0,
                3.000000238418579,
                3.0
            ],
            "translation" : [
                -0.003253459930419922,
                5.15414571762085,
                2.8817050457000732
            ]
        },
        {
            "mesh" : 3,
            "name" : "glasses_lens_left_lens_Cube5_Cube3",
            "rotation" : [
                0.6855820417404175,
                -0.14933910965919495,
                0.1279650181531906,
                0.7009280323982239
            ],
            "scale" : [
                3.0,
                3.000000238418579,
                3.0
            ],
            "translation" : [
                -0.003253459930419922,
                5.15414571762085,
                2.8817050457000732
            ]
        },
        {
            "mesh" : 2,
            "name" : "glasses_lens_right_lens_Cube1_Cube2",
            "rotation" : [
                0.6855820417404175,
                -0.14933910965919495,
                0.1279650181531906,
                0.7009280323982239
            ],
            "scale" : [
                3.0,
                3.000000238418579,
                3.0
            ],
            "translation" : [
                -0.003253459930419922,
                5.15414571762085,
                2.8817050457000732
            ]
        },
        {
            "name" : "Lamp",
            "rotation" : [
                0.16907575726509094,
                0.7558802962303162,
                -0.27217137813568115,
                0.570947527885437
            ],
            "scale" : [
                1.0,
                1.0,
                0.9999999403953552
            ],
            "translation" : [
                4.076245307922363,
                5.903861999511719,
                -1.0054539442062378
            ]
        }
    ],
    "scene" : 0,
    "scenes" : [
        {
            "name" : "Scene",
            "nodes" : [
                3,
                4,
                2,
                1,
                5,
                0
            ]
        }
    ]
}
