{
    "accessors" : [
        {
            "bufferView" : 0,
            "componentType" : 5123,
            "count" : 181320,
            "max" : [
                36050
            ],
            "min" : [
                0
            ],
            "type" : "SCALAR"
        },
        {
            "bufferView" : 1,
            "componentType" : 5126,
            "count" : 36051,
            "max" : [
                3.3427000045776367,
                2.5302000045776367,
                -2.6763999462127686
            ],
            "min" : [
                -3.6605000495910645,
                -1.9667999744415283,
                -4.053699970245361
            ],
            "type" : "VEC3"
        },
        {
            "bufferView" : 2,
            "componentType" : 5126,
            "count" : 36051,
            "max" : [
                0.999969482421875,
                0.999969482421875,
                0.999969482421875
            ],
            "min" : [
                -0.999908447265625,
                -0.999969482421875,
                -0.999969482421875
            ],
            "type" : "VEC3"
        },
        {
            "bufferView" : 3,
            "componentType" : 5126,
            "count" : 36051,
            "max" : [
                1.0,
                0.9999366998672485,
                0.9999993443489075,
                1.0
            ],
            "min" : [
                -0.9999762773513794,
                -0.9999798536300659,
                -0.9999901056289673,
                -1.0
            ],
            "type" : "VEC4"
        },
        {
            "bufferView" : 4,
            "componentType" : 5126,
            "count" : 36051,
            "max" : [
                1.0,
                1.0
            ],
            "min" : [
                0.0,
                0.0
            ],
            "type" : "VEC2"
        },
        {
            "bufferView" : 5,
            "componentType" : 5123,
            "count" : 10752,
            "max" : [
                2021
            ],
            "min" : [
                0
            ],
            "type" : "SCALAR"
        },
        {
            "bufferView" : 6,
            "componentType" : 5126,
            "count" : 2022,
            "max" : [
                -0.38839998841285706,
                2.381200075149536,
                -2.801500082015991
            ],
            "min" : [
                -2.3951001167297363,
                2.0697999000549316,
                -3.959399938583374
            ],
            "type" : "VEC3"
        },
        {
            "bufferView" : 7,
            "componentType" : 5126,
            "count" : 2022,
            "max" : [
                0.9793389439582825,
                0.999908447265625,
                0.9985045790672302
            ],
            "min" : [
                -0.9996337890625,
                -0.999969482421875,
                -0.9910885691642761
            ],
            "type" : "VEC3"
        },
        {
            "bufferView" : 8,
            "componentType" : 5126,
            "count" : 2022,
            "max" : [
                0.9999327063560486,
                0.9957768321037292,
                0.7388492226600647,
                1.0
            ],
            "min" : [
                -0.9999135136604309,
                -0.9771537184715271,
                -0.9049205183982849,
                1.0
            ],
            "type" : "VEC4"
        },
        {
            "bufferView" : 9,
            "componentType" : 5126,
            "count" : 2022,
            "max" : [
                1.0,
                1.0
            ],
            "min" : [
                0.0,
                0.0
            ],
            "type" : "VEC2"
        },
        {
            "bufferView" : 10,
            "componentType" : 5123,
            "count" : 10752,
            "max" : [
                2021
            ],
            "min" : [
                0
            ],
            "type" : "SCALAR"
        },
        {
            "bufferView" : 11,
            "componentType" : 5126,
            "count" : 2022,
            "max" : [
                2.299499988555908,
                2.3559999465942383,
                -2.7077999114990234
            ],
            "min" : [
                0.296099990606308,
                1.9907000064849854,
                -3.8633999824523926
            ],
            "type" : "VEC3"
        },
        {
            "bufferView" : 12,
            "componentType" : 5126,
            "count" : 2022,
            "max" : [
                0.9730521440505981,
                0.999908447265625,
                0.9905087351799011
            ],
            "min" : [
                -0.9987792372703552,
                -0.99951171875,
                -0.9984435439109802
            ],
            "type" : "VEC3"
        },
        {
            "bufferView" : 13,
            "componentType" : 5126,
            "count" : 2022,
            "max" : [
                0.9999653697013855,
                0.9945640563964844,
                0.7822048664093018,
                1.0
            ],
            "min" : [
                -0.9999662041664124,
                -0.9697364568710327,
                -0.8742272853851318,
                1.0
            ],
            "type" : "VEC4"
        },
        {
            "bufferView" : 14,
            "componentType" : 5126,
            "count" : 2022,
            "max" : [
                1.0,
                1.0
            ],
            "min" : [
                0.0,
                0.0
            ],
            "type" : "VEC2"
        },
        {
            "bufferView" : 15,
            "componentType" : 5123,
            "count" : 606,
            "max" : [
                605
            ],
            "min" : [
                0
            ],
            "type" : "SCALAR"
        },
        {
            "bufferView" : 16,
            "componentType" : 5126,
            "count" : 606,
            "max" : [
                1.9630000591278076,
                -1.291200041770935,
                -0.2842999994754791
            ],
            "min" : [
                -1.9630000591278076,
                -2.1201999187469482,
                -2.0116000175476074
            ],
            "type" : "VEC3"
        },
        {
            "bufferView" : 17,
            "componentType" : 5126,
            "count" : 606,
            "max" : [
                0.8824473023414612,
                -0.39435774087905884,
                0.8047181963920593
            ],
            "min" : [
                -0.8824473023414612,
                -0.9975655674934387,
                -0.5657539963722229
            ],
            "type" : "VEC3"
        },
        {
            "bufferView" : 18,
            "componentType" : 5126,
            "count" : 606,
            "max" : [
                0.1491442769765854,
                0.9483420848846436,
                0.6480379700660706,
                1.0
            ],
            "min" : [
                -0.9999250173568726,
                -0.9402104020118713,
                -0.6482018232345581,
                -1.0
            ],
            "type" : "VEC4"
        },
        {
            "bufferView" : 19,
            "componentType" : 5126,
            "count" : 606,
            "max" : [
                0.7232999801635742,
                0.4677000045776367
            ],
            "min" : [
                0.2766999900341034,
                0.2558000087738037
            ],
            "type" : "VEC2"
        }
    ],
    "asset" : {
        "generator" : "Khronos Blender glTF 2.0 exporter",
        "version" : "2.0"
    },
    "bufferViews" : [
        {
            "buffer" : 0,
            "byteLength" : 362640,
            "byteOffset" : 0,
            "target" : 34963
        },
        {
            "buffer" : 0,
            "byteLength" : 432612,
            "byteOffset" : 362640,
            "target" : 34962
        },
        {
            "buffer" : 0,
            "byteLength" : 432612,
            "byteOffset" : 795252,
            "target" : 34962
        },
        {
            "buffer" : 0,
            "byteLength" : 576816,
            "byteOffset" : 1227864,
            "target" : 34962
        },
        {
            "buffer" : 0,
            "byteLength" : 288408,
            "byteOffset" : 1804680,
            "target" : 34962
        },
        {
            "buffer" : 0,
            "byteLength" : 21504,
            "byteOffset" : 2093088,
            "target" : 34963
        },
        {
            "buffer" : 0,
            "byteLength" : 24264,
            "byteOffset" : 2114592,
            "target" : 34962
        },
        {
            "buffer" : 0,
            "byteLength" : 24264,
            "byteOffset" : 2138856,
            "target" : 34962
        },
        {
            "buffer" : 0,
            "byteLength" : 32352,
            "byteOffset" : 2163120,
            "target" : 34962
        },
        {
            "buffer" : 0,
            "byteLength" : 16176,
            "byteOffset" : 2195472,
            "target" : 34962
        },
        {
            "buffer" : 0,
            "byteLength" : 21504,
            "byteOffset" : 2211648,
            "target" : 34963
        },
        {
            "buffer" : 0,
            "byteLength" : 24264,
            "byteOffset" : 2233152,
            "target" : 34962
        },
        {
            "buffer" : 0,
            "byteLength" : 24264,
            "byteOffset" : 2257416,
            "target" : 34962
        },
        {
            "buffer" : 0,
            "byteLength" : 32352,
            "byteOffset" : 2281680,
            "target" : 34962
        },
        {
            "buffer" : 0,
            "byteLength" : 16176,
            "byteOffset" : 2314032,
            "target" : 34962
        },
        {
            "buffer" : 0,
            "byteLength" : 1212,
            "byteOffset" : 2330208,
            "target" : 34963
        },
        {
            "buffer" : 0,
            "byteLength" : 7272,
            "byteOffset" : 2331420,
            "target" : 34962
        },
        {
            "buffer" : 0,
            "byteLength" : 7272,
            "byteOffset" : 2338692,
            "target" : 34962
        },
        {
            "buffer" : 0,
            "byteLength" : 9696,
            "byteOffset" : 2345964,
            "target" : 34962
        },
        {
            "buffer" : 0,
            "byteLength" : 4848,
            "byteOffset" : 2355660,
            "target" : 34962
        }
    ],
    "buffers" : [
        {
            "byteLength" : 2360508,
            "uri" : "glass9.bin"
        }
    ],
    "materials" : [
        {
            "alphaMode" : "BLEND",
            "name" : "frame.004",
            "pbrMetallicRoughness" : {
                "baseColorFactor" : [
                    0.019600000232458115,
                    0.019600000232458115,
                    0.019600000232458115,
                    1.0
                ],
                "metallicFactor" : 0.0
            }
        },
        {
            "alphaMode" : "BLEND",
            "name" : "lambert1.004",
            "pbrMetallicRoughness" : {
                "baseColorFactor" : [
                    0.7843000292778015,
                    0.7843000292778015,
                    0.7843000292778015,
                    1.0
                ],
                "metallicFactor" : 0.0
            }
        },
        {
            "alphaMode" : "BLEND",
            "name" : "Mat_2.004",
            "pbrMetallicRoughness" : {
                "baseColorFactor" : [
                    0.15289999544620514,
                    0.3528999984264374,
                    0.8666999936103821,
                    0.8500000238418579
                ],
                "metallicFactor" : 0.0
            }
        }
    ],
    "meshes" : [
        {
            "name" : "glasses_frame_HyperNURBS_Cube4_Cube.004",
            "primitives" : [
                {
                    "attributes" : {
                        "NORMAL" : 2,
                        "POSITION" : 1,
                        "TANGENT" : 3,
                        "TEXCOORD_0" : 4
                    },
                    "indices" : 0,
                    "material" : 0
                }
            ]
        },
        {
            "name" : "glasses_lens_left_lens_Cube5_Cube3.004",
            "primitives" : [
                {
                    "attributes" : {
                        "NORMAL" : 7,
                        "POSITION" : 6,
                        "TANGENT" : 8,
                        "TEXCOORD_0" : 9
                    },
                    "indices" : 5,
                    "material" : 2
                }
            ]
        },
        {
            "name" : "glasses_lens_right_lens_Cube1_Cube2.004",
            "primitives" : [
                {
                    "attributes" : {
                        "NORMAL" : 12,
                        "POSITION" : 11,
                        "TANGENT" : 13,
                        "TEXCOORD_0" : 14
                    },
                    "indices" : 10,
                    "material" : 2
                }
            ]
        },
        {
            "name" : "facemesh.004",
            "primitives" : [
                {
                    "attributes" : {
                        "NORMAL" : 17,
                        "POSITION" : 16,
                        "TANGENT" : 18,
                        "TEXCOORD_0" : 19
                    },
                    "indices" : 15,
                    "material" : 1
                }
            ]
        }
    ],
    "nodes" : [
        {
            "name" : "Camera",
            "rotation" : [
                0.483536034822464,
                0.33687159419059753,
                -0.20870360732078552,
                0.7804827094078064
            ],
            "translation" : [
                7.481131553649902,
                5.34366512298584,
                6.5076398849487305
            ]
        },
        {
            "mesh" : 3,
            "name" : "facemesh.000",
            "rotation" : [
                0.7071068286895752,
                0.0,
                -0.0,
                0.7071067094802856
            ]
        },
        {
            "mesh" : 0,
            "name" : "glasses_frame_HyperNURBS_Cube4_Cube.000",
            "rotation" : [
                0.7071068286895752,
                0.0,
                -0.0,
                0.7071067094802856
            ]
        },
        {
            "mesh" : 1,
            "name" : "glasses_lens_left_lens_Cube5_Cube3.000",
            "rotation" : [
                0.7089555859565735,
                0.0,
                -0.0,
                0.7052531242370605
            ]
        },
        {
            "mesh" : 2,
            "name" : "glasses_lens_right_lens_Cube1_Cube2.000",
            "rotation" : [
                0.7071068286895752,
                0.0,
                -0.0,
                0.7071067094802856
            ],
            "translation" : [
                0.0,
                0.03999999910593033,
                -0.009999999776482582
            ]
        },
        {
            "name" : "Lamp",
            "rotation" : [
                0.16907575726509094,
                0.7558802962303162,
                -0.27217137813568115,
                0.570947527885437
            ],
            "scale" : [
                1.0,
                1.0,
                0.9999999403953552
            ],
            "translation" : [
                4.076245307922363,
                5.903861999511719,
                -1.0054539442062378
            ]
        }
    ],
    "scene" : 0,
    "scenes" : [
        {
            "name" : "Scene",
            "nodes" : [
                1,
                3,
                2,
                4,
                5,
                0
            ]
        }
    ]
}
