{
    "accessors" : [
        {
            "bufferView" : 0,
            "componentType" : 5123,
            "count" : 6528,
            "max" : [
                1224
            ],
            "min" : [
                0
            ],
            "type" : "SCALAR"
        },
        {
            "bufferView" : 1,
            "componentType" : 5126,
            "count" : 1225,
            "max" : [
                2.728600025177002,
                2.635999917984009,
                -2.5025999546051025
            ],
            "min" : [
                0.2395000010728836,
                1.8312000036239624,
                -4.6057000160217285
            ],
            "type" : "VEC3"
        },
        {
            "bufferView" : 2,
            "componentType" : 5126,
            "count" : 1225,
            "max" : [
                0.026032287627458572,
                -0.7898495197296143,
                0.1994079351425171
            ],
            "min" : [
                -0.6132084131240845,
                -0.999969482421875,
                -0.17664113640785217
            ],
            "type" : "VEC3"
        },
        {
            "bufferView" : 3,
            "componentType" : 5126,
            "count" : 1225,
            "max" : [
                -0.6786555051803589,
                0.6091049909591675,
                0.5205677151679993,
                1.0
            ],
            "min" : [
                -0.9999996423721313,
                -0.023427389562129974,
                -0.5804135203361511,
                1.0
            ],
            "type" : "VEC4"
        },
        {
            "bufferView" : 4,
            "componentType" : 5126,
            "count" : 1225,
            "max" : [
                1.0,
                1.0
            ],
            "min" : [
                0.0,
                0.0
            ],
            "type" : "VEC2"
        },
        {
            "bufferView" : 5,
            "componentType" : 5123,
            "count" : 6528,
            "max" : [
                1224
            ],
            "min" : [
                0
            ],
            "type" : "SCALAR"
        },
        {
            "bufferView" : 6,
            "componentType" : 5126,
            "count" : 1225,
            "max" : [
                -0.3149999976158142,
                2.6638998985290527,
                -2.504300117492676
            ],
            "min" : [
                -2.710599899291992,
                1.8029999732971191,
                -4.607699871063232
            ],
            "type" : "VEC3"
        },
        {
            "bufferView" : 7,
            "componentType" : 5126,
            "count" : 1225,
            "max" : [
                0.048829615116119385,
                0.999969482421875,
                0.16849268972873688
            ],
            "min" : [
                -0.6476333141326904,
                0.7619251012802124,
                -0.1976378709077835
            ],
            "type" : "VEC3"
        },
        {
            "bufferView" : 8,
            "componentType" : 5126,
            "count" : 1225,
            "max" : [
                0.9999998807907104,
                0.6450668573379517,
                0.5170981884002686,
                1.0
            ],
            "min" : [
                0.6541851162910461,
                -0.045273587107658386,
                -0.5776063203811646,
                -1.0
            ],
            "type" : "VEC4"
        },
        {
            "bufferView" : 9,
            "componentType" : 5126,
            "count" : 1225,
            "max" : [
                1.0,
                1.0
            ],
            "min" : [
                0.0,
                0.0
            ],
            "type" : "VEC2"
        },
        {
            "bufferView" : 10,
            "componentType" : 5123,
            "count" : 26880,
            "max" : [
                5093
            ],
            "min" : [
                0
            ],
            "type" : "SCALAR"
        },
        {
            "bufferView" : 11,
            "componentType" : 5126,
            "count" : 5094,
            "max" : [
                3.5478999614715576,
                1.864300012588501,
                -3.151900053024292
            ],
            "min" : [
                2.7012999057769775,
                -2.423099994659424,
                -4.031400203704834
            ],
            "type" : "VEC3"
        },
        {
            "bufferView" : 12,
            "componentType" : 5126,
            "count" : 5094,
            "max" : [
                0.9998779296875,
                0.9807122945785522,
                0.99993896484375
            ],
            "min" : [
                -0.999542236328125,
                -0.9813226461410522,
                -0.999969482421875
            ],
            "type" : "VEC3"
        },
        {
            "bufferView" : 13,
            "componentType" : 5126,
            "count" : 5094,
            "max" : [
                0.984194278717041,
                0.9991287589073181,
                0.8824554085731506,
                1.0
            ],
            "min" : [
                -0.9839991331100464,
                -0.9838680028915405,
                -0.8823592662811279,
                1.0
            ],
            "type" : "VEC4"
        },
        {
            "bufferView" : 14,
            "componentType" : 5126,
            "count" : 5094,
            "max" : [
                1.0,
                1.0
            ],
            "min" : [
                0.0,
                0.0
            ],
            "type" : "VEC2"
        },
        {
            "bufferView" : 15,
            "componentType" : 5123,
            "count" : 26880,
            "max" : [
                5093
            ],
            "min" : [
                0
            ],
            "type" : "SCALAR"
        },
        {
            "bufferView" : 16,
            "componentType" : 5126,
            "count" : 5094,
            "max" : [
                -2.650599956512451,
                1.8702000379562378,
                -3.1563000679016113
            ],
            "min" : [
                -3.884200096130371,
                -2.3259999752044678,
                -4.035799980163574
            ],
            "type" : "VEC3"
        },
        {
            "bufferView" : 17,
            "componentType" : 5126,
            "count" : 5094,
            "max" : [
                0.99908447265625,
                0.9909359812736511,
                0.99993896484375
            ],
            "min" : [
                -0.9986266493797302,
                -0.9923398494720459,
                -0.999969482421875
            ],
            "type" : "VEC3"
        },
        {
            "bufferView" : 18,
            "componentType" : 5126,
            "count" : 5094,
            "max" : [
                0.994945764541626,
                0.9626733660697937,
                0.8826295137405396,
                1.0
            ],
            "min" : [
                -0.9948145747184753,
                -0.9981302618980408,
                -0.882460355758667,
                1.0
            ],
            "type" : "VEC4"
        },
        {
            "bufferView" : 19,
            "componentType" : 5126,
            "count" : 5094,
            "max" : [
                1.0,
                1.0
            ],
            "min" : [
                0.0,
                0.0
            ],
            "type" : "VEC2"
        },
        {
            "bufferView" : 20,
            "componentType" : 5123,
            "count" : 6912,
            "max" : [
                1349
            ],
            "min" : [
                0
            ],
            "type" : "SCALAR"
        },
        {
            "bufferView" : 21,
            "componentType" : 5126,
            "count" : 1350,
            "max" : [
                0.47850000858306885,
                2.658900022506714,
                -3.5344998836517334
            ],
            "min" : [
                -0.47519999742507935,
                2.604300022125244,
                -3.8394999504089355
            ],
            "type" : "VEC3"
        },
        {
            "bufferView" : 22,
            "componentType" : 5126,
            "count" : 1350,
            "max" : [
                0.999969482421875,
                1.0,
                0.999969482421875
            ],
            "min" : [
                -0.999969482421875,
                -1.0,
                -0.999908447265625
            ],
            "type" : "VEC3"
        },
        {
            "bufferView" : 23,
            "componentType" : 5126,
            "count" : 1350,
            "max" : [
                0.9999967813491821,
                1.0,
                0.8110582828521729,
                1.0
            ],
            "min" : [
                -0.9999309182167053,
                -1.0,
                -0.8057876825332642,
                1.0
            ],
            "type" : "VEC4"
        },
        {
            "bufferView" : 24,
            "componentType" : 5126,
            "count" : 1350,
            "max" : [
                1.0,
                1.0
            ],
            "min" : [
                0.0,
                0.0
            ],
            "type" : "VEC2"
        },
        {
            "bufferView" : 25,
            "componentType" : 5123,
            "count" : 606,
            "max" : [
                605
            ],
            "min" : [
                0
            ],
            "type" : "SCALAR"
        },
        {
            "bufferView" : 26,
            "componentType" : 5126,
            "count" : 606,
            "max" : [
                1.9630000591278076,
                -1.291200041770935,
                -0.2842999994754791
            ],
            "min" : [
                -1.9630000591278076,
                -2.1201999187469482,
                -2.0116000175476074
            ],
            "type" : "VEC3"
        },
        {
            "bufferView" : 27,
            "componentType" : 5126,
            "count" : 606,
            "max" : [
                0.8824473023414612,
                -0.39435774087905884,
                0.8047181963920593
            ],
            "min" : [
                -0.8824473023414612,
                -0.9975655674934387,
                -0.5657539963722229
            ],
            "type" : "VEC3"
        },
        {
            "bufferView" : 28,
            "componentType" : 5126,
            "count" : 606,
            "max" : [
                0.1491442769765854,
                0.9483420848846436,
                0.6480379700660706,
                1.0
            ],
            "min" : [
                -0.9999250173568726,
                -0.9402104020118713,
                -0.6482018232345581,
                -1.0
            ],
            "type" : "VEC4"
        },
        {
            "bufferView" : 29,
            "componentType" : 5126,
            "count" : 606,
            "max" : [
                0.7232999801635742,
                0.4677000045776367
            ],
            "min" : [
                0.2766999900341034,
                0.2558000087738037
            ],
            "type" : "VEC2"
        }
    ],
    "asset" : {
        "generator" : "Khronos Blender glTF 2.0 exporter",
        "version" : "2.0"
    },
    "bufferViews" : [
        {
            "buffer" : 0,
            "byteLength" : 13056,
            "byteOffset" : 0,
            "target" : 34963
        },
        {
            "buffer" : 0,
            "byteLength" : 14700,
            "byteOffset" : 13056,
            "target" : 34962
        },
        {
            "buffer" : 0,
            "byteLength" : 14700,
            "byteOffset" : 27756,
            "target" : 34962
        },
        {
            "buffer" : 0,
            "byteLength" : 19600,
            "byteOffset" : 42456,
            "target" : 34962
        },
        {
            "buffer" : 0,
            "byteLength" : 9800,
            "byteOffset" : 62056,
            "target" : 34962
        },
        {
            "buffer" : 0,
            "byteLength" : 13056,
            "byteOffset" : 71856,
            "target" : 34963
        },
        {
            "buffer" : 0,
            "byteLength" : 14700,
            "byteOffset" : 84912,
            "target" : 34962
        },
        {
            "buffer" : 0,
            "byteLength" : 14700,
            "byteOffset" : 99612,
            "target" : 34962
        },
        {
            "buffer" : 0,
            "byteLength" : 19600,
            "byteOffset" : 114312,
            "target" : 34962
        },
        {
            "buffer" : 0,
            "byteLength" : 9800,
            "byteOffset" : 133912,
            "target" : 34962
        },
        {
            "buffer" : 0,
            "byteLength" : 53760,
            "byteOffset" : 143712,
            "target" : 34963
        },
        {
            "buffer" : 0,
            "byteLength" : 61128,
            "byteOffset" : 197472,
            "target" : 34962
        },
        {
            "buffer" : 0,
            "byteLength" : 61128,
            "byteOffset" : 258600,
            "target" : 34962
        },
        {
            "buffer" : 0,
            "byteLength" : 81504,
            "byteOffset" : 319728,
            "target" : 34962
        },
        {
            "buffer" : 0,
            "byteLength" : 40752,
            "byteOffset" : 401232,
            "target" : 34962
        },
        {
            "buffer" : 0,
            "byteLength" : 53760,
            "byteOffset" : 441984,
            "target" : 34963
        },
        {
            "buffer" : 0,
            "byteLength" : 61128,
            "byteOffset" : 495744,
            "target" : 34962
        },
        {
            "buffer" : 0,
            "byteLength" : 61128,
            "byteOffset" : 556872,
            "target" : 34962
        },
        {
            "buffer" : 0,
            "byteLength" : 81504,
            "byteOffset" : 618000,
            "target" : 34962
        },
        {
            "buffer" : 0,
            "byteLength" : 40752,
            "byteOffset" : 699504,
            "target" : 34962
        },
        {
            "buffer" : 0,
            "byteLength" : 13824,
            "byteOffset" : 740256,
            "target" : 34963
        },
        {
            "buffer" : 0,
            "byteLength" : 16200,
            "byteOffset" : 754080,
            "target" : 34962
        },
        {
            "buffer" : 0,
            "byteLength" : 16200,
            "byteOffset" : 770280,
            "target" : 34962
        },
        {
            "buffer" : 0,
            "byteLength" : 21600,
            "byteOffset" : 786480,
            "target" : 34962
        },
        {
            "buffer" : 0,
            "byteLength" : 10800,
            "byteOffset" : 808080,
            "target" : 34962
        },
        {
            "buffer" : 0,
            "byteLength" : 1212,
            "byteOffset" : 818880,
            "target" : 34963
        },
        {
            "buffer" : 0,
            "byteLength" : 7272,
            "byteOffset" : 820092,
            "target" : 34962
        },
        {
            "buffer" : 0,
            "byteLength" : 7272,
            "byteOffset" : 827364,
            "target" : 34962
        },
        {
            "buffer" : 0,
            "byteLength" : 9696,
            "byteOffset" : 834636,
            "target" : 34962
        },
        {
            "buffer" : 0,
            "byteLength" : 4848,
            "byteOffset" : 844332,
            "target" : 34962
        }
    ],
    "buffers" : [
        {
            "byteLength" : 849180,
            "uri" : "glass11.bin"
        }
    ],
    "materials" : [
        {
            "alphaMode" : "BLEND",
            "name" : "lambert1.004",
            "pbrMetallicRoughness" : {
                "baseColorFactor" : [
                    0.7843000292778015,
                    0.7843000292778015,
                    0.7843000292778015,
                    1.0
                ],
                "metallicFactor" : 0.0
            }
        },
        {
            "alphaMode" : "BLEND",
            "name" : "Nuovo.002",
            "pbrMetallicRoughness" : {
                "baseColorFactor" : [
                    0.0,
                    0.0,
                    0.0,
                    0.8500000238418579
                ],
                "metallicFactor" : 0.0
            }
        },
        {
            "alphaMode" : "BLEND",
            "name" : "temple.003",
            "pbrMetallicRoughness" : {
                "baseColorFactor" : [
                    0.007799999788403511,
                    0.027499999850988388,
                    0.08630000054836273,
                    0.8500000238418579
                ],
                "metallicFactor" : 0.0
            }
        }
    ],
    "meshes" : [
        {
            "name" : "Glasses_HyperNURBS_1_Piano.006",
            "primitives" : [
                {
                    "attributes" : {
                        "NORMAL" : 2,
                        "POSITION" : 1,
                        "TANGENT" : 3,
                        "TEXCOORD_0" : 4
                    },
                    "indices" : 0,
                    "material" : 1
                }
            ]
        },
        {
            "name" : "Glasses_HyperNURBS_Piano1.005",
            "primitives" : [
                {
                    "attributes" : {
                        "NORMAL" : 7,
                        "POSITION" : 6,
                        "TANGENT" : 8,
                        "TEXCOORD_0" : 9
                    },
                    "indices" : 5,
                    "material" : 1
                }
            ]
        },
        {
            "name" : "Glasses_HyperNURBS_4_Cubo1.005",
            "primitives" : [
                {
                    "attributes" : {
                        "NORMAL" : 12,
                        "POSITION" : 11,
                        "TANGENT" : 13,
                        "TEXCOORD_0" : 14
                    },
                    "indices" : 10,
                    "material" : 2
                }
            ]
        },
        {
            "name" : "Glasses_HyperNURBS_3_Cubo2.005",
            "primitives" : [
                {
                    "attributes" : {
                        "NORMAL" : 17,
                        "POSITION" : 16,
                        "TANGENT" : 18,
                        "TEXCOORD_0" : 19
                    },
                    "indices" : 15,
                    "material" : 2
                }
            ]
        },
        {
            "name" : "Glasses_HyperNURBS_2_Cubo.005",
            "primitives" : [
                {
                    "attributes" : {
                        "NORMAL" : 22,
                        "POSITION" : 21,
                        "TANGENT" : 23,
                        "TEXCOORD_0" : 24
                    },
                    "indices" : 20,
                    "material" : 2
                }
            ]
        },
        {
            "name" : "facemesh.004",
            "primitives" : [
                {
                    "attributes" : {
                        "NORMAL" : 27,
                        "POSITION" : 26,
                        "TANGENT" : 28,
                        "TEXCOORD_0" : 29
                    },
                    "indices" : 25,
                    "material" : 0
                }
            ]
        }
    ],
    "nodes" : [
        {
            "name" : "Camera",
            "rotation" : [
                0.483536034822464,
                0.33687159419059753,
                -0.20870360732078552,
                0.7804827094078064
            ],
            "translation" : [
                7.481131553649902,
                5.34366512298584,
                6.5076398849487305
            ]
        },
        {
            "mesh" : 5,
            "name" : "facemesh.000",
            "rotation" : [
                0.7071068286895752,
                0.0,
                -0.0,
                0.7071067094802856
            ]
        },
        {
            "mesh" : 0,
            "name" : "Glasses_HyperNURBS_1_Piano.003",
            "rotation" : [
                0.7071068286895752,
                0.0,
                -0.0,
                0.7071067094802856
            ]
        },
        {
            "mesh" : 4,
            "name" : "Glasses_HyperNURBS_2_Cubo.003",
            "rotation" : [
                0.7071068286895752,
                0.0,
                -0.0,
                0.7071067094802856
            ]
        },
        {
            "mesh" : 3,
            "name" : "Glasses_HyperNURBS_3_Cubo2.003",
            "rotation" : [
                0.7071068286895752,
                0.0,
                -0.0,
                0.7071067094802856
            ]
        },
        {
            "mesh" : 2,
            "name" : "Glasses_HyperNURBS_4_Cubo1.003",
            "rotation" : [
                0.7071068286895752,
                0.0,
                -0.0,
                0.7071067094802856
            ]
        },
        {
            "mesh" : 1,
            "name" : "Glasses_HyperNURBS_Piano1.003",
            "rotation" : [
                0.7071068286895752,
                0.0,
                -0.0,
                0.7071067094802856
            ]
        },
        {
            "name" : "Lamp",
            "rotation" : [
                0.16907575726509094,
                0.7558802962303162,
                -0.27217137813568115,
                0.570947527885437
            ],
            "scale" : [
                1.0,
                1.0,
                0.9999999403953552
            ],
            "translation" : [
                4.076245307922363,
                5.903861999511719,
                -1.0054539442062378
            ]
        }
    ],
    "scene" : 0,
    "scenes" : [
        {
            "name" : "Scene",
            "nodes" : [
                2,
                1,
                3,
                5,
                6,
                4,
                7,
                0
            ]
        }
    ]
}
