{
    "accessors" : [
        {
            "bufferView" : 0,
            "componentType" : 5123,
            "count" : 181320,
            "max" : [
                36050
            ],
            "min" : [
                0
            ],
            "type" : "SCALAR"
        },
        {
            "bufferView" : 1,
            "componentType" : 5126,
            "count" : 36051,
            "max" : [
                1.214900016784668,
                0.06989999860525131,
                0.754800021648407
            ],
            "min" : [
                -1.7786999940872192,
                -2.0894999504089355,
                0.26100000739097595
            ],
            "type" : "VEC3"
        },
        {
            "bufferView" : 2,
            "componentType" : 5126,
            "count" : 36051,
            "max" : [
                0.999969482421875,
                0.999969482421875,
                0.999969482421875
            ],
            "min" : [
                -0.99993896484375,
                -0.9998779296875,
                -0.999969482421875
            ],
            "type" : "VEC3"
        },
        {
            "bufferView" : 3,
            "componentType" : 5126,
            "count" : 36051,
            "max" : [
                1.0,
                0.9999046921730042,
                0.9999998807907104,
                1.0
            ],
            "min" : [
                -0.9999884366989136,
                -0.9999313950538635,
                -0.9999999403953552,
                -1.0
            ],
            "type" : "VEC4"
        },
        {
            "bufferView" : 4,
            "componentType" : 5126,
            "count" : 36051,
            "max" : [
                1.0,
                1.0
            ],
            "min" : [
                0.0,
                0.0
            ],
            "type" : "VEC2"
        },
        {
            "bufferView" : 5,
            "componentType" : 5123,
            "count" : 606,
            "max" : [
                197
            ],
            "min" : [
                0
            ],
            "type" : "SCALAR"
        },
        {
            "bufferView" : 6,
            "componentType" : 5126,
            "count" : 198,
            "max" : [
                1.9630000591278076,
                -1.291200041770935,
                -0.2842999994754791
            ],
            "min" : [
                -1.9630000591278076,
                -2.1201999187469482,
                -2.0116000175476074
            ],
            "type" : "VEC3"
        },
        {
            "bufferView" : 7,
            "componentType" : 5126,
            "count" : 198,
            "max" : [
                0.8824427127838135,
                -0.39432966709136963,
                0.8041017055511475
            ],
            "min" : [
                -0.8824427127838135,
                -0.9974364638328552,
                -0.5504928827285767
            ],
            "type" : "VEC3"
        },
        {
            "bufferView" : 8,
            "componentType" : 5126,
            "count" : 198,
            "max" : [
                0.21034343540668488,
                0.9261023998260498,
                0.6935212016105652,
                1.0
            ],
            "min" : [
                -1.0,
                -0.926092267036438,
                -0.6932971477508545,
                -1.0
            ],
            "type" : "VEC4"
        },
        {
            "bufferView" : 9,
            "componentType" : 5126,
            "count" : 198,
            "max" : [
                0.7232999801635742,
                0.4677000045776367
            ],
            "min" : [
                0.2766999900341034,
                0.2558000087738037
            ],
            "type" : "VEC2"
        },
        {
            "bufferView" : 10,
            "componentType" : 5123,
            "count" : 10752,
            "max" : [
                2021
            ],
            "min" : [
                0
            ],
            "type" : "SCALAR"
        },
        {
            "bufferView" : 11,
            "componentType" : 5126,
            "count" : 2022,
            "max" : [
                -0.3066999912261963,
                0.0017999999690800905,
                0.7099999785423279
            ],
            "min" : [
                -1.0194000005722046,
                -0.14900000393390656,
                0.2948000133037567
            ],
            "type" : "VEC3"
        },
        {
            "bufferView" : 12,
            "componentType" : 5126,
            "count" : 2022,
            "max" : [
                0.9629200100898743,
                0.999847412109375,
                0.9988402724266052
            ],
            "min" : [
                -0.9960325956344604,
                -0.99993896484375,
                -0.9922482967376709
            ],
            "type" : "VEC3"
        },
        {
            "bufferView" : 13,
            "componentType" : 5126,
            "count" : 2022,
            "max" : [
                0.9999369978904724,
                0.9923991560935974,
                0.7386477589607239,
                1.0
            ],
            "min" : [
                -0.9999197125434875,
                -0.9620780348777771,
                -0.9050529599189758,
                1.0
            ],
            "type" : "VEC4"
        },
        {
            "bufferView" : 14,
            "componentType" : 5126,
            "count" : 2022,
            "max" : [
                1.0,
                1.0
            ],
            "min" : [
                0.0,
                0.0
            ],
            "type" : "VEC2"
        },
        {
            "bufferView" : 15,
            "componentType" : 5123,
            "count" : 10752,
            "max" : [
                2021
            ],
            "min" : [
                0
            ],
            "type" : "SCALAR"
        },
        {
            "bufferView" : 16,
            "componentType" : 5126,
            "count" : 2022,
            "max" : [
                0.661899983882904,
                0.028999999165534973,
                0.7434999942779541
            ],
            "min" : [
                -0.061500001698732376,
                -0.0714000016450882,
                0.3292999863624573
            ],
            "type" : "VEC3"
        },
        {
            "bufferView" : 17,
            "componentType" : 5126,
            "count" : 2022,
            "max" : [
                0.9866023659706116,
                0.999969482421875,
                0.9904477000236511
            ],
            "min" : [
                -0.999603271484375,
                -0.99993896484375,
                -0.9983519911766052
            ],
            "type" : "VEC3"
        },
        {
            "bufferView" : 18,
            "componentType" : 5126,
            "count" : 2022,
            "max" : [
                0.9999371767044067,
                0.9957876801490784,
                0.7816261649131775,
                1.0
            ],
            "min" : [
                -0.9999669790267944,
                -0.9826247096061707,
                -0.8740811347961426,
                1.0
            ],
            "type" : "VEC4"
        },
        {
            "bufferView" : 19,
            "componentType" : 5126,
            "count" : 2022,
            "max" : [
                1.0,
                1.0
            ],
            "min" : [
                0.0,
                0.0
            ],
            "type" : "VEC2"
        }
    ],
    "asset" : {
        "generator" : "Khronos Blender glTF 2.0 exporter",
        "version" : "2.0"
    },
    "bufferViews" : [
        {
            "buffer" : 0,
            "byteLength" : 362640,
            "byteOffset" : 0,
            "target" : 34963
        },
        {
            "buffer" : 0,
            "byteLength" : 432612,
            "byteOffset" : 362640,
            "target" : 34962
        },
        {
            "buffer" : 0,
            "byteLength" : 432612,
            "byteOffset" : 795252,
            "target" : 34962
        },
        {
            "buffer" : 0,
            "byteLength" : 576816,
            "byteOffset" : 1227864,
            "target" : 34962
        },
        {
            "buffer" : 0,
            "byteLength" : 288408,
            "byteOffset" : 1804680,
            "target" : 34962
        },
        {
            "buffer" : 0,
            "byteLength" : 1212,
            "byteOffset" : 2093088,
            "target" : 34963
        },
        {
            "buffer" : 0,
            "byteLength" : 2376,
            "byteOffset" : 2094300,
            "target" : 34962
        },
        {
            "buffer" : 0,
            "byteLength" : 2376,
            "byteOffset" : 2096676,
            "target" : 34962
        },
        {
            "buffer" : 0,
            "byteLength" : 3168,
            "byteOffset" : 2099052,
            "target" : 34962
        },
        {
            "buffer" : 0,
            "byteLength" : 1584,
            "byteOffset" : 2102220,
            "target" : 34962
        },
        {
            "buffer" : 0,
            "byteLength" : 21504,
            "byteOffset" : 2103804,
            "target" : 34963
        },
        {
            "buffer" : 0,
            "byteLength" : 24264,
            "byteOffset" : 2125308,
            "target" : 34962
        },
        {
            "buffer" : 0,
            "byteLength" : 24264,
            "byteOffset" : 2149572,
            "target" : 34962
        },
        {
            "buffer" : 0,
            "byteLength" : 32352,
            "byteOffset" : 2173836,
            "target" : 34962
        },
        {
            "buffer" : 0,
            "byteLength" : 16176,
            "byteOffset" : 2206188,
            "target" : 34962
        },
        {
            "buffer" : 0,
            "byteLength" : 21504,
            "byteOffset" : 2222364,
            "target" : 34963
        },
        {
            "buffer" : 0,
            "byteLength" : 24264,
            "byteOffset" : 2243868,
            "target" : 34962
        },
        {
            "buffer" : 0,
            "byteLength" : 24264,
            "byteOffset" : 2268132,
            "target" : 34962
        },
        {
            "buffer" : 0,
            "byteLength" : 32352,
            "byteOffset" : 2292396,
            "target" : 34962
        },
        {
            "buffer" : 0,
            "byteLength" : 16176,
            "byteOffset" : 2324748,
            "target" : 34962
        }
    ],
    "buffers" : [
        {
            "byteLength" : 2340924,
            "uri" : "glass8.bin"
        }
    ],
    "materials" : [
        {
            "alphaMode" : "BLEND",
            "name" : "frame.001",
            "pbrMetallicRoughness" : {
                "baseColorFactor" : [
                    0.019600000232458115,
                    0.019600000232458115,
                    0.019600000232458115,
                    1.0
                ],
                "metallicFactor" : 0.0
            }
        },
        {
            "alphaMode" : "BLEND",
            "name" : "lambert1",
            "pbrMetallicRoughness" : {
                "baseColorFactor" : [
                    0.7843000292778015,
                    0.7843000292778015,
                    0.7843000292778015,
                    1.0
                ],
                "metallicFactor" : 0.0
            }
        },
        {
            "alphaMode" : "BLEND",
            "name" : "Mat_2.001",
            "pbrMetallicRoughness" : {
                "baseColorFactor" : [
                    0.15289999544620514,
                    0.3528999984264374,
                    0.8666999936103821,
                    0.8500000238418579
                ],
                "metallicFactor" : 0.0
            }
        }
    ],
    "meshes" : [
        {
            "name" : "glasses_frame_HyperNURBS_Cube4_Cube.001",
            "primitives" : [
                {
                    "attributes" : {
                        "NORMAL" : 2,
                        "POSITION" : 1,
                        "TANGENT" : 3,
                        "TEXCOORD_0" : 4
                    },
                    "indices" : 0,
                    "material" : 0
                }
            ]
        },
        {
            "name" : "facemesh",
            "primitives" : [
                {
                    "attributes" : {
                        "NORMAL" : 7,
                        "POSITION" : 6,
                        "TANGENT" : 8,
                        "TEXCOORD_0" : 9
                    },
                    "indices" : 5,
                    "material" : 1
                }
            ]
        },
        {
            "name" : "glasses_lens_left_lens_Cube5_Cube3.001",
            "primitives" : [
                {
                    "attributes" : {
                        "NORMAL" : 12,
                        "POSITION" : 11,
                        "TANGENT" : 13,
                        "TEXCOORD_0" : 14
                    },
                    "indices" : 10,
                    "material" : 2
                }
            ]
        },
        {
            "name" : "glasses_lens_right_lens_Cube1_Cube2.001",
            "primitives" : [
                {
                    "attributes" : {
                        "NORMAL" : 17,
                        "POSITION" : 16,
                        "TANGENT" : 18,
                        "TEXCOORD_0" : 19
                    },
                    "indices" : 15,
                    "material" : 2
                }
            ]
        }
    ],
    "nodes" : [
        {
            "name" : "Camera",
            "rotation" : [
                0.483536034822464,
                0.33687159419059753,
                -0.20870360732078552,
                0.7804827094078064
            ],
            "translation" : [
                7.481131553649902,
                5.34366512298584,
                6.5076398849487305
            ]
        },
        {
            "mesh" : 1,
            "name" : "facemesh",
            "rotation" : [
                0.7071068286895752,
                0.0,
                -0.0,
                0.7071067094802856
            ]
        },
        {
            "mesh" : 0,
            "name" : "glasses_frame_HyperNURBS_Cube4_Cube.002",
            "rotation" : [
                0.7071068286895752,
                0.0,
                -0.0,
                0.7071067094802856
            ],
            "scale" : [
                3.0,
                3.0,
                3.0
            ],
            "translation" : [
                0.6211156249046326,
                5.127148628234863,
                2.2646830081939697
            ]
        },
        {
            "mesh" : 2,
            "name" : "glasses_lens_left_lens_Cube5_Cube3.002",
            "rotation" : [
                0.7071068286895752,
                0.0,
                -0.0,
                0.7071067094802856
            ],
            "scale" : [
                3.0,
                3.0,
                3.0
            ],
            "translation" : [
                0.6211156249046326,
                5.127148628234863,
                2.2646830081939697
            ]
        },
        {
            "mesh" : 3,
            "name" : "glasses_lens_right_lens_Cube1_Cube2.002",
            "rotation" : [
                0.7071068286895752,
                0.0,
                -0.0,
                0.7071067094802856
            ],
            "scale" : [
                3.0,
                3.0,
                3.0
            ],
            "translation" : [
                0.6211156249046326,
                5.127148628234863,
                2.2646830081939697
            ]
        },
        {
            "name" : "Lamp",
            "rotation" : [
                0.16907575726509094,
                0.7558802962303162,
                -0.27217137813568115,
                0.570947527885437
            ],
            "scale" : [
                1.0,
                1.0,
                0.9999999403953552
            ],
            "translation" : [
                4.076245307922363,
                5.903861999511719,
                -1.0054539442062378
            ]
        }
    ],
    "scene" : 0,
    "scenes" : [
        {
            "name" : "Scene",
            "nodes" : [
                3,
                4,
                2,
                1,
                5,
                0
            ]
        }
    ]
}
