{
    "accessors" : [
        {
            "bufferView" : 0,
            "componentType" : 5125,
            "count" : 245760,
            "max" : [
                163839
            ],
            "min" : [
                0
            ],
            "type" : "SCALAR"
        },
        {
            "bufferView" : 1,
            "componentType" : 5126,
            "count" : 163840,
            "max" : [
                0.8335890173912048,
                0.04180999845266342,
                0.7418980002403259
            ],
            "min" : [
                -1.0916199684143066,
                -2.183619976043701,
                0.270440012216568
            ],
            "type" : "VEC3"
        },
        {
            "bufferView" : 2,
            "componentType" : 5126,
            "count" : 163840,
            "max" : [
                0.9999886155128479,
                0.9998738169670105,
                0.9998176693916321
            ],
            "min" : [
                -0.9998536705970764,
                -0.9999660849571228,
                -0.999866783618927
            ],
            "type" : "VEC3"
        },
        {
            "bufferView" : 3,
            "componentType" : 5126,
            "count" : 163840,
            "max" : [
                1.0,
                0.9999664425849915,
                0.9999995231628418,
                1.0
            ],
            "min" : [
                -0.9998878240585327,
                -0.9997258186340332,
                -0.9999901056289673,
                -1.0
            ],
            "type" : "VEC4"
        },
        {
            "bufferView" : 4,
            "componentType" : 5126,
            "count" : 163840,
            "max" : [
                1.0,
                1.0
            ],
            "min" : [
                0.0,
                0.0
            ],
            "type" : "VEC2"
        },
        {
            "bufferView" : 5,
            "componentType" : 5123,
            "count" : 606,
            "max" : [
                197
            ],
            "min" : [
                0
            ],
            "type" : "SCALAR"
        },
        {
            "bufferView" : 6,
            "componentType" : 5126,
            "count" : 198,
            "max" : [
                1.9630000591278076,
                -1.291200041770935,
                -0.2842999994754791
            ],
            "min" : [
                -1.9630000591278076,
                -2.1201999187469482,
                -2.0116000175476074
            ],
            "type" : "VEC3"
        },
        {
            "bufferView" : 7,
            "componentType" : 5126,
            "count" : 198,
            "max" : [
                0.8824427127838135,
                -0.39432966709136963,
                0.8041017055511475
            ],
            "min" : [
                -0.8824427127838135,
                -0.9974364638328552,
                -0.5504928827285767
            ],
            "type" : "VEC3"
        },
        {
            "bufferView" : 8,
            "componentType" : 5126,
            "count" : 198,
            "max" : [
                0.21034343540668488,
                0.9261023998260498,
                0.6935212016105652,
                1.0
            ],
            "min" : [
                -1.0,
                -0.926092267036438,
                -0.6932971477508545,
                -1.0
            ],
            "type" : "VEC4"
        },
        {
            "bufferView" : 9,
            "componentType" : 5126,
            "count" : 198,
            "max" : [
                0.7232999801635742,
                0.4677000045776367
            ],
            "min" : [
                0.2766999900341034,
                0.2558000087738037
            ],
            "type" : "VEC2"
        },
        {
            "bufferView" : 10,
            "componentType" : 5123,
            "count" : 10752,
            "max" : [
                7167
            ],
            "min" : [
                0
            ],
            "type" : "SCALAR"
        },
        {
            "bufferView" : 11,
            "componentType" : 5126,
            "count" : 7168,
            "max" : [
                0.7544839978218079,
                -0.18811500072479248,
                0.7122629880905151
            ],
            "min" : [
                0.09560900181531906,
                -0.4964210093021393,
                0.29760000109672546
            ],
            "type" : "VEC3"
        },
        {
            "bufferView" : 12,
            "componentType" : 5126,
            "count" : 7168,
            "max" : [
                0.9975142478942871,
                0.9996960163116455,
                0.9088168740272522
            ],
            "min" : [
                -0.9956263303756714,
                -0.9984631538391113,
                -0.9055302739143372
            ],
            "type" : "VEC3"
        },
        {
            "bufferView" : 13,
            "componentType" : 5126,
            "count" : 7168,
            "max" : [
                0.9984918236732483,
                0.999012291431427,
                0.717886209487915,
                1.0
            ],
            "min" : [
                -0.9968233108520508,
                -0.9915589690208435,
                -0.8536348342895508,
                1.0
            ],
            "type" : "VEC4"
        },
        {
            "bufferView" : 14,
            "componentType" : 5126,
            "count" : 7168,
            "max" : [
                1.0,
                1.0
            ],
            "min" : [
                0.0,
                0.0
            ],
            "type" : "VEC2"
        },
        {
            "bufferView" : 15,
            "componentType" : 5123,
            "count" : 10752,
            "max" : [
                7167
            ],
            "min" : [
                0
            ],
            "type" : "SCALAR"
        },
        {
            "bufferView" : 16,
            "componentType" : 5126,
            "count" : 7168,
            "max" : [
                -0.1388069987297058,
                0.021328000351786613,
                0.7139059901237488
            ],
            "min" : [
                -0.8516409993171692,
                -0.12496300041675568,
                0.299234002828598
            ],
            "type" : "VEC3"
        },
        {
            "bufferView" : 17,
            "componentType" : 5126,
            "count" : 7168,
            "max" : [
                0.9594231843948364,
                0.999996542930603,
                0.9053617715835571
            ],
            "min" : [
                -0.9873575568199158,
                -0.9998598694801331,
                -0.9088913202285767
            ],
            "type" : "VEC3"
        },
        {
            "bufferView" : 18,
            "componentType" : 5126,
            "count" : 7168,
            "max" : [
                0.9996410012245178,
                0.995536208152771,
                0.7201396226882935,
                1.0
            ],
            "min" : [
                -0.9998773336410522,
                -0.9592024683952332,
                -0.8519273996353149,
                1.0
            ],
            "type" : "VEC4"
        },
        {
            "bufferView" : 19,
            "componentType" : 5126,
            "count" : 7168,
            "max" : [
                1.0,
                1.0
            ],
            "min" : [
                0.0,
                0.0
            ],
            "type" : "VEC2"
        }
    ],
    "asset" : {
        "generator" : "Khronos Blender glTF 2.0 exporter",
        "version" : "2.0"
    },
    "bufferViews" : [
        {
            "buffer" : 0,
            "byteLength" : 983040,
            "byteOffset" : 0,
            "target" : 34963
        },
        {
            "buffer" : 0,
            "byteLength" : 1966080,
            "byteOffset" : 983040,
            "target" : 34962
        },
        {
            "buffer" : 0,
            "byteLength" : 1966080,
            "byteOffset" : 2949120,
            "target" : 34962
        },
        {
            "buffer" : 0,
            "byteLength" : 2621440,
            "byteOffset" : 4915200,
            "target" : 34962
        },
        {
            "buffer" : 0,
            "byteLength" : 1310720,
            "byteOffset" : 7536640,
            "target" : 34962
        },
        {
            "buffer" : 0,
            "byteLength" : 1212,
            "byteOffset" : 8847360,
            "target" : 34963
        },
        {
            "buffer" : 0,
            "byteLength" : 2376,
            "byteOffset" : 8848572,
            "target" : 34962
        },
        {
            "buffer" : 0,
            "byteLength" : 2376,
            "byteOffset" : 8850948,
            "target" : 34962
        },
        {
            "buffer" : 0,
            "byteLength" : 3168,
            "byteOffset" : 8853324,
            "target" : 34962
        },
        {
            "buffer" : 0,
            "byteLength" : 1584,
            "byteOffset" : 8856492,
            "target" : 34962
        },
        {
            "buffer" : 0,
            "byteLength" : 21504,
            "byteOffset" : 8858076,
            "target" : 34963
        },
        {
            "buffer" : 0,
            "byteLength" : 86016,
            "byteOffset" : 8879580,
            "target" : 34962
        },
        {
            "buffer" : 0,
            "byteLength" : 86016,
            "byteOffset" : 8965596,
            "target" : 34962
        },
        {
            "buffer" : 0,
            "byteLength" : 114688,
            "byteOffset" : 9051612,
            "target" : 34962
        },
        {
            "buffer" : 0,
            "byteLength" : 57344,
            "byteOffset" : 9166300,
            "target" : 34962
        },
        {
            "buffer" : 0,
            "byteLength" : 21504,
            "byteOffset" : 9223644,
            "target" : 34963
        },
        {
            "buffer" : 0,
            "byteLength" : 86016,
            "byteOffset" : 9245148,
            "target" : 34962
        },
        {
            "buffer" : 0,
            "byteLength" : 86016,
            "byteOffset" : 9331164,
            "target" : 34962
        },
        {
            "buffer" : 0,
            "byteLength" : 114688,
            "byteOffset" : 9417180,
            "target" : 34962
        },
        {
            "buffer" : 0,
            "byteLength" : 57344,
            "byteOffset" : 9531868,
            "target" : 34962
        }
    ],
    "buffers" : [
        {
            "byteLength" : 9589212,
            "uri" : "glass8.bin"
        }
    ],
    "materials" : [
        {
            "name" : "frame",
            "pbrMetallicRoughness" : {
                "baseColorFactor" : [
                    0.6400000190734865,
                    0.6400000190734865,
                    0.6400000190734865,
                    1.0
                ],
                "metallicFactor" : 0.0
            }
        },
        {
            "alphaMode" : "BLEND",
            "name" : "lambert1",
            "pbrMetallicRoughness" : {
                "baseColorFactor" : [
                    0.7843000292778015,
                    0.7843000292778015,
                    0.7843000292778015,
                    1.0
                ],
                "metallicFactor" : 0.0
            }
        },
        {
            "name" : "Mat_2",
            "pbrMetallicRoughness" : {
                "baseColorFactor" : [
                    0.6400000190734865,
                    0.6400000190734865,
                    0.6400000190734865,
                    1.0
                ],
                "metallicFactor" : 0.0
            }
        }
    ],
    "meshes" : [
        {
            "name" : "glasses frame HyperNURBS Cube4 Cube",
            "primitives" : [
                {
                    "attributes" : {
                        "NORMAL" : 2,
                        "POSITION" : 1,
                        "TANGENT" : 3,
                        "TEXCOORD_0" : 4
                    },
                    "indices" : 0,
                    "material" : 0
                }
            ]
        },
        {
            "name" : "facemesh",
            "primitives" : [
                {
                    "attributes" : {
                        "NORMAL" : 7,
                        "POSITION" : 6,
                        "TANGENT" : 8,
                        "TEXCOORD_0" : 9
                    },
                    "indices" : 5,
                    "material" : 1
                }
            ]
        },
        {
            "name" : "glasses lens right_lens Cube1 Cube2",
            "primitives" : [
                {
                    "attributes" : {
                        "NORMAL" : 12,
                        "POSITION" : 11,
                        "TANGENT" : 13,
                        "TEXCOORD_0" : 14
                    },
                    "indices" : 10,
                    "material" : 2
                }
            ]
        },
        {
            "name" : "glasses lens left_lens Cube5 Cube3",
            "primitives" : [
                {
                    "attributes" : {
                        "NORMAL" : 17,
                        "POSITION" : 16,
                        "TANGENT" : 18,
                        "TEXCOORD_0" : 19
                    },
                    "indices" : 15,
                    "material" : 2
                }
            ]
        }
    ],
    "nodes" : [
        {
            "name" : "Camera",
            "rotation" : [
                0.483536034822464,
                0.33687159419059753,
                -0.20870360732078552,
                0.7804827094078064
            ],
            "translation" : [
                7.481131553649902,
                5.34366512298584,
                6.5076398849487305
            ]
        },
        {
            "mesh" : 1,
            "name" : "facemesh",
            "rotation" : [
                0.7071068286895752,
                0.0,
                -0.0,
                0.7071067094802856
            ]
        },
        {
            "mesh" : 0,
            "name" : "glasses frame HyperNURBS Cube4 Cube",
            "rotation" : [
                0.6367871761322021,
                -0.056363075971603394,
                0.04844948276877403,
                0.7674489617347717
            ],
            "scale" : [
                3.0,
                3.0,
                3.0
            ],
            "translation" : [
                -0.049311067909002304,
                5.119463920593262,
                2.822157144546509
            ]
        },
        {
            "mesh" : 3,
            "name" : "glasses lens left_lens Cube5 Cube3",
            "rotation" : [
                0.6949133276939392,
                -0.04314392805099487,
                0.03370371088385582,
                0.7170063853263855
            ],
            "scale" : [
                2.799999952316284,
                2.799999952316284,
                2.799999952316284
            ],
            "translation" : [
                -0.0834241509437561,
                4.998630523681641,
                3.1039416790008545
            ]
        },
        {
            "mesh" : 2,
            "name" : "glasses lens right_lens Cube1 Cube2",
            "rotation" : [
                0.7012280821800232,
                -0.03646419197320938,
                -0.017333032563328743,
                0.7117928862571716
            ],
            "scale" : [
                2.8999998569488525,
                2.9000003337860107,
                2.9000000953674316
            ],
            "translation" : [
                0.19358386099338531,
                4.9965500831604,
                3.3052611351013184
            ]
        },
        {
            "name" : "Lamp",
            "rotation" : [
                0.16907575726509094,
                0.7558802962303162,
                -0.27217137813568115,
                0.570947527885437
            ],
            "scale" : [
                1.0,
                1.0,
                0.9999999403953552
            ],
            "translation" : [
                4.076245307922363,
                5.903861999511719,
                -1.0054539442062378
            ]
        }
    ],
    "scene" : 0,
    "scenes" : [
        {
            "name" : "Scene",
            "nodes" : [
                3,
                4,
                2,
                1,
                5,
                0
            ]
        }
    ]
}
