{
    "accessors" : [
        {
            "bufferView" : 0,
            "componentType" : 5123,
            "count" : 8640,
            "max" : [
                1731
            ],
            "min" : [
                0
            ],
            "type" : "SCALAR"
        },
        {
            "bufferView" : 1,
            "componentType" : 5126,
            "count" : 1732,
            "max" : [
                2.6837000846862793,
                2.4558000564575195,
                0.30720001459121704
            ],
            "min" : [
                -2.6064000129699707,
                1.7015999555587769,
                -1.9364999532699585
            ],
            "type" : "VEC3"
        },
        {
            "bufferView" : 2,
            "componentType" : 5126,
            "count" : 1732,
            "max" : [
                0.9853510856628418,
                0.99993896484375,
                0.9934385418891907
            ],
            "min" : [
                -0.9922788143157959,
                -0.99993896484375,
                -0.9930417537689209
            ],
            "type" : "VEC3"
        },
        {
            "bufferView" : 3,
            "componentType" : 5126,
            "count" : 1732,
            "max" : [
                0.9998696446418762,
                0.8677719831466675,
                0.9947037100791931,
                1.0
            ],
            "min" : [
                -0.9864974021911621,
                -0.7799704670906067,
                -0.9995481967926025,
                -1.0
            ],
            "type" : "VEC4"
        },
        {
            "bufferView" : 4,
            "componentType" : 5126,
            "count" : 1732,
            "max" : [
                1.0388000011444092,
                0.7042999863624573
            ],
            "min" : [
                0.0,
                0.25550001859664917
            ],
            "type" : "VEC2"
        },
        {
            "bufferView" : 5,
            "componentType" : 5123,
            "count" : 702,
            "max" : [
                216
            ],
            "min" : [
                0
            ],
            "type" : "SCALAR"
        },
        {
            "bufferView" : 6,
            "componentType" : 5126,
            "count" : 217,
            "max" : [
                2.2046000957489014,
                -1.0724999904632568,
                0.06449999660253525
            ],
            "min" : [
                -2.2046000957489014,
                -2.1201999187469482,
                -2.598099946975708
            ],
            "type" : "VEC3"
        },
        {
            "bufferView" : 7,
            "componentType" : 5126,
            "count" : 217,
            "max" : [
                0.8824427127838135,
                -0.39432966709136963,
                0.8041017055511475
            ],
            "min" : [
                -0.8824427127838135,
                -0.999908447265625,
                -0.5504928827285767
            ],
            "type" : "VEC3"
        },
        {
            "bufferView" : 8,
            "componentType" : 5126,
            "count" : 217,
            "max" : [
                0.21034343540668488,
                0.9261023998260498,
                0.6935212016105652,
                1.0
            ],
            "min" : [
                -1.0,
                -0.926092267036438,
                -0.6932971477508545,
                -1.0
            ],
            "type" : "VEC4"
        },
        {
            "bufferView" : 9,
            "componentType" : 5126,
            "count" : 217,
            "max" : [
                0.7700999975204468,
                0.5087000131607056
            ],
            "min" : [
                0.22990000247955322,
                0.18779999017715454
            ],
            "type" : "VEC2"
        },
        {
            "bufferView" : 10,
            "componentType" : 5123,
            "count" : 10668,
            "max" : [
                2390
            ],
            "min" : [
                0
            ],
            "type" : "SCALAR"
        },
        {
            "bufferView" : 11,
            "componentType" : 5126,
            "count" : 2391,
            "max" : [
                3.205399990081787,
                2.275899887084961,
                0.3467999994754791
            ],
            "min" : [
                -3.2701001167297363,
                -1.292799949645996,
                -1.9766000509262085
            ],
            "type" : "VEC3"
        },
        {
            "bufferView" : 12,
            "componentType" : 5126,
            "count" : 2391,
            "max" : [
                0.999237060546875,
                0.999725341796875,
                0.999298095703125
            ],
            "min" : [
                -0.99957275390625,
                -0.999053955078125,
                -0.999298095703125
            ],
            "type" : "VEC3"
        },
        {
            "bufferView" : 13,
            "componentType" : 5126,
            "count" : 2391,
            "max" : [
                1.0,
                0.9952983260154724,
                0.9977261424064636,
                1.0
            ],
            "min" : [
                -0.9986222982406616,
                -0.9930611252784729,
                -0.9948709607124329,
                -1.0
            ],
            "type" : "VEC4"
        },
        {
            "bufferView" : 14,
            "componentType" : 5126,
            "count" : 2391,
            "max" : [
                1.0879000425338745,
                0.8050000071525574
            ],
            "min" : [
                0.0,
                0.27389997243881226
            ],
            "type" : "VEC2"
        },
        {
            "bufferView" : 15,
            "componentType" : 5123,
            "count" : 2256,
            "max" : [
                462
            ],
            "min" : [
                0
            ],
            "type" : "SCALAR"
        },
        {
            "bufferView" : 16,
            "componentType" : 5126,
            "count" : 463,
            "max" : [
                0.5310999751091003,
                2.1041998863220215,
                -0.5076000094413757
            ],
            "min" : [
                -0.41359999775886536,
                2.0072999000549316,
                -0.9517999887466431
            ],
            "type" : "VEC3"
        },
        {
            "bufferView" : 17,
            "componentType" : 5126,
            "count" : 463,
            "max" : [
                0.9987792372703552,
                0.99993896484375,
                0.964568018913269
            ],
            "min" : [
                -0.99932861328125,
                -0.999969482421875,
                -0.9899594187736511
            ],
            "type" : "VEC3"
        },
        {
            "bufferView" : 18,
            "componentType" : 5126,
            "count" : 463,
            "max" : [
                0.994622528553009,
                0.8598257899284363,
                0.9861597418785095,
                1.0
            ],
            "min" : [
                -0.9999794363975525,
                -0.8590719103813171,
                -0.9820929765701294,
                -1.0
            ],
            "type" : "VEC4"
        },
        {
            "bufferView" : 19,
            "componentType" : 5126,
            "count" : 463,
            "max" : [
                1.0246000289916992,
                0.6527999937534332
            ],
            "min" : [
                0.003100000089034438,
                0.3273000121116638
            ],
            "type" : "VEC2"
        }
    ],
    "asset" : {
        "generator" : "Khronos Blender glTF 2.0 exporter",
        "version" : "2.0"
    },
    "bufferViews" : [
        {
            "buffer" : 0,
            "byteLength" : 17280,
            "byteOffset" : 0,
            "target" : 34963
        },
        {
            "buffer" : 0,
            "byteLength" : 20784,
            "byteOffset" : 17280,
            "target" : 34962
        },
        {
            "buffer" : 0,
            "byteLength" : 20784,
            "byteOffset" : 38064,
            "target" : 34962
        },
        {
            "buffer" : 0,
            "byteLength" : 27712,
            "byteOffset" : 58848,
            "target" : 34962
        },
        {
            "buffer" : 0,
            "byteLength" : 13856,
            "byteOffset" : 86560,
            "target" : 34962
        },
        {
            "buffer" : 0,
            "byteLength" : 1404,
            "byteOffset" : 100416,
            "target" : 34963
        },
        {
            "buffer" : 0,
            "byteLength" : 2604,
            "byteOffset" : 101820,
            "target" : 34962
        },
        {
            "buffer" : 0,
            "byteLength" : 2604,
            "byteOffset" : 104424,
            "target" : 34962
        },
        {
            "buffer" : 0,
            "byteLength" : 3472,
            "byteOffset" : 107028,
            "target" : 34962
        },
        {
            "buffer" : 0,
            "byteLength" : 1736,
            "byteOffset" : 110500,
            "target" : 34962
        },
        {
            "buffer" : 0,
            "byteLength" : 21336,
            "byteOffset" : 112236,
            "target" : 34963
        },
        {
            "buffer" : 0,
            "byteLength" : 28692,
            "byteOffset" : 133572,
            "target" : 34962
        },
        {
            "buffer" : 0,
            "byteLength" : 28692,
            "byteOffset" : 162264,
            "target" : 34962
        },
        {
            "buffer" : 0,
            "byteLength" : 38256,
            "byteOffset" : 190956,
            "target" : 34962
        },
        {
            "buffer" : 0,
            "byteLength" : 19128,
            "byteOffset" : 229212,
            "target" : 34962
        },
        {
            "buffer" : 0,
            "byteLength" : 4512,
            "byteOffset" : 248340,
            "target" : 34963
        },
        {
            "buffer" : 0,
            "byteLength" : 5556,
            "byteOffset" : 252852,
            "target" : 34962
        },
        {
            "buffer" : 0,
            "byteLength" : 5556,
            "byteOffset" : 258408,
            "target" : 34962
        },
        {
            "buffer" : 0,
            "byteLength" : 7408,
            "byteOffset" : 263964,
            "target" : 34962
        },
        {
            "buffer" : 0,
            "byteLength" : 3704,
            "byteOffset" : 271372,
            "target" : 34962
        }
    ],
    "buffers" : [
        {
            "byteLength" : 275076,
            "uri" : "glass2.bin"
        }
    ],
    "materials" : [
        {
            "alphaMode" : "BLEND",
            "name" : "glasseyes",
            "pbrMetallicRoughness" : {
                "baseColorFactor" : [
                    0.31369999051094055,
                    0.694100022315979,
                    0.3765000104904175,
                    0.8500000238418579
                ],
                "metallicFactor" : 0.0
            }
        },
        {
            "alphaMode" : "BLEND",
            "name" : "lambert1",
            "pbrMetallicRoughness" : {
                "baseColorFactor" : [
                    0.7843000292778015,
                    0.7843000292778015,
                    0.7843000292778015,
                    1.0
                ],
                "metallicFactor" : 0.0
            }
        },
        {
            "alphaMode" : "BLEND",
            "name" : "temple",
            "pbrMetallicRoughness" : {
                "baseColorFactor" : [
                    0.5490000247955322,
                    0.513700008392334,
                    0.27059999108314514,
                    1.0
                ],
                "metallicFactor" : 0.0
            }
        }
    ],
    "meshes" : [
        {
            "name" : "mesh0_1",
            "primitives" : [
                {
                    "attributes" : {
                        "NORMAL" : 2,
                        "POSITION" : 1,
                        "TANGENT" : 3,
                        "TEXCOORD_0" : 4
                    },
                    "indices" : 0,
                    "material" : 0
                }
            ]
        },
        {
            "name" : "facemesh",
            "primitives" : [
                {
                    "attributes" : {
                        "NORMAL" : 7,
                        "POSITION" : 6,
                        "TANGENT" : 8,
                        "TEXCOORD_0" : 9
                    },
                    "indices" : 5,
                    "material" : 1
                }
            ]
        },
        {
            "name" : "mesh0",
            "primitives" : [
                {
                    "attributes" : {
                        "NORMAL" : 12,
                        "POSITION" : 11,
                        "TANGENT" : 13,
                        "TEXCOORD_0" : 14
                    },
                    "indices" : 10,
                    "material" : 2
                }
            ]
        },
        {
            "name" : "mesh0_2",
            "primitives" : [
                {
                    "attributes" : {
                        "NORMAL" : 17,
                        "POSITION" : 16,
                        "TANGENT" : 18,
                        "TEXCOORD_0" : 19
                    },
                    "indices" : 15,
                    "material" : 1
                }
            ]
        }
    ],
    "nodes" : [
        {
            "name" : "Camera",
            "rotation" : [
                0.483536034822464,
                0.33687159419059753,
                -0.20870360732078552,
                0.7804827094078064
            ],
            "translation" : [
                7.481131553649902,
                5.34366512298584,
                6.5076398849487305
            ]
        },
        {
            "mesh" : 1,
            "name" : "facemesh",
            "rotation" : [
                0.7071068286895752,
                0.0,
                -0.0,
                0.7071067094802856
            ]
        },
        {
            "name" : "Lamp",
            "rotation" : [
                0.16907575726509094,
                0.7558802962303162,
                -0.27217137813568115,
                0.570947527885437
            ],
            "scale" : [
                1.0,
                1.0,
                0.9999999403953552
            ],
            "translation" : [
                4.076245307922363,
                5.903861999511719,
                -1.0054539442062378
            ]
        },
        {
            "mesh" : 2,
            "name" : "mesh0",
            "rotation" : [
                0.7071068286895752,
                0.0,
                -0.0,
                0.7071067094802856
            ]
        },
        {
            "mesh" : 0,
            "name" : "mesh0_1",
            "rotation" : [
                0.7071068286895752,
                0.0,
                -0.0,
                0.7071067094802856
            ]
        },
        {
            "mesh" : 3,
            "name" : "mesh0_2",
            "rotation" : [
                0.7071068286895752,
                0.0,
                -0.0,
                0.7071067094802856
            ]
        }
    ],
    "scene" : 0,
    "scenes" : [
        {
            "name" : "Scene",
            "nodes" : [
                5,
                3,
                1,
                4,
                2,
                0
            ]
        }
    ]
}
