{
  "accessors": [
    {
      "bufferView": 2,
      "componentType": 5126,
      "count": 3532,
      "max": [
        6.968900203704834,
        -3.901400089263916,
        3.9662001132965088
      ],
      "min": [
        -6.9679999351501465,
        -8.3998003005981445,
        -0.014899999834597111
      ],
      "type": "VEC3"
    },
    {
      "bufferView": 2,
      "byteOffset": 42384,
      "componentType": 5126,
      "count": 3532,
      "max": [
        0.99998641014099121,
        0.99998021125793457,
        0.99994492530822754
      ],
      "min": [
        -0.99998641014099121,
        -0.99998319149017334,
        -0.99994492530822754
      ],
      "type": "VEC3"
    },
    {
      "bufferView": 3,
      "componentType": 5126,
      "count": 3532,
      "max": [
        0.99856656789779663,
        0.57850551605224609,
        0.85398375988006592,
        1
      ],
      "min": [
        -0.99938762187957764,
        -0.96112567186355591,
        -0.99949866533279419,
        -1
      ],
      "type": "VEC4"
    },
    {
      "bufferView": 1,
      "componentType": 5126,
      "count": 3532,
      "max": [
        1,
        1
      ],
      "min": [
        0,
        0
      ],
      "type": "VEC2"
    },
    {
      "bufferView": 0,
      "componentType": 5125,
      "count": 20328,
      "max": [
        3531
      ],
      "min": [
        0
      ],
      "type": "SCALAR"
    },
    {
      "bufferView": 2,
      "byteOffset": 84768,
      "componentType": 5126,
      "count": 4112,
      "max": [
        6.9748001098632812,
        6.7894001007080078,
        3.4990999698638916
      ],
      "min": [
        -6.9748001098632812,
        -4.1430001258850098,
        0.011900000274181366
      ],
      "type": "VEC3"
    },
    {
      "bufferView": 2,
      "byteOffset": 134112,
      "componentType": 5126,
      "count": 4112,
      "max": [
        0.99999165534973145,
        0.99925756454467773,
        0.99994492530822754
      ],
      "min": [
        -0.99999165534973145,
        -0.99995028972625732,
        -0.99994492530822754
      ],
      "type": "VEC3"
    },
    {
      "bufferView": 3,
      "byteOffset": 56512,
      "componentType": 5126,
      "count": 4112,
      "max": [
        0.99999397993087769,
        0.999489426612854,
        0.98013144731521606,
        1
      ],
      "min": [
        -0.99999397993087769,
        -0.99992996454238892,
        -0.98031342029571533,
        -1
      ],
      "type": "VEC4"
    },
    {
      "bufferView": 1,
      "byteOffset": 28256,
      "componentType": 5126,
      "count": 4112,
      "max": [
        58.875999450683594,
        18.552600860595703
      ],
      "min": [
        -52.287799835205078,
        -17.409599304199219
      ],
      "type": "VEC2"
    },
    {
      "bufferView": 0,
      "byteOffset": 81312,
      "componentType": 5125,
      "count": 23976,
      "max": [
        4111
      ],
      "min": [
        0
      ],
      "type": "SCALAR"
    }
  ],
  "asset": {
    "extras": {
      "author": "vinigor (https://sketchfab.com/vinigor)",
      "license": "CC-BY-4.0 (http://creativecommons.org/licenses/by/4.0/)",
      "source": "https://sketchfab.com/models/2c38a0d71fc64064b162b33154334265",
      "title": "Glasses yellow"
    },
    "generator": "Sketchfab-3.36.0",
    "version": "2.0"
  },
  "bufferViews": [
    {
      "buffer": 0,
      "byteLength": 177216,
      "byteOffset": 0,
      "name": "floatBufferViews",
      "target": 34963
    },
    {
      "buffer": 0,
      "byteLength": 61152,
      "byteOffset": 177216,
      "byteStride": 8,
      "name": "floatBufferViews",
      "target": 34962
    },
    {
      "buffer": 0,
      "byteLength": 183456,
      "byteOffset": 238368,
      "byteStride": 12,
      "name": "floatBufferViews",
      "target": 34962
    },
    {
      "buffer": 0,
      "byteLength": 122304,
      "byteOffset": 421824,
      "byteStride": 16,
      "name": "floatBufferViews",
      "target": 34962
    }
  ],
  "buffers": [
    {
      "byteLength": 544128,
      "uri": "scene.bin"
    }
  ],
  "materials": [
    {
      "alphaMode": "BLEND",
      "doubleSided": true,
      "name": "C_Glasses_Yellow_Glass",
      "pbrMetallicRoughness": {
        "baseColorFactor": [
          1,
          0.90228009860000002,
          0,
          0.2156184934
        ],
        "metallicFactor": 0.17788264440000001,
        "roughnessFactor": 0
      }
    },
    {
      "doubleSided": true,
      "name": "C_Glasses_Yellow_Plastic",
      "pbrMetallicRoughness": {
        "baseColorFactor": [
          0.0042203665000000003,
          0.0040894824999999999,
          0.0040894824999999999,
          1
        ],
        "metallicFactor": 0,
        "roughnessFactor": 0.29737949969999999
      }
    }
  ],
  "meshes": [
    {
      "primitives": [
        {
          "attributes": {
            "NORMAL": 1,
            "POSITION": 0,
            "TANGENT": 2,
            "TEXCOORD_0": 3
          },
          "indices": 4,
          "material": 0,
          "mode": 4
        }
      ]
    },
    {
      "primitives": [
        {
          "attributes": {
            "NORMAL": 6,
            "POSITION": 5,
            "TANGENT": 7,
            "TEXCOORD_0": 8
          },
          "indices": 9,
          "material": 1,
          "mode": 4
        }
      ]
    }
  ],
  "nodes": [
    {
      "children": [
        1
      ],
      "name": "RootNode (gltf orientation matrix)",
      "rotation": [
        -0.70710678118654746,
        -0,
        -0,
        0.70710678118654757
      ]
    },
    {
      "children": [
        2
      ],
      "name": "RootNode (model correction matrix)"
    },
    {
      "children": [
        3,
        4
      ],
      "name": "g4.obj.cleaner.materialmerger.gles"
    },
    {
      "mesh": 0,
      "name": ""
    },
    {
      "mesh": 1,
      "name": ""
    }
  ],
  "scene": 0,
  "scenes": [
    {
      "name": "OSG_Scene",
      "nodes": [
        0
      ]
    }
  ]
}

